<svg width="1291" height="1291" viewBox="0 0 1291 1291" fill="none" xmlns="http://www.w3.org/2000/svg">
<g opacity="0.2">
<path d="M645.629 1288.51C1000.89 1288.51 1288.89 1000.51 1288.89 645.247C1288.89 289.985 1000.89 1.98804 645.629 1.98804C290.367 1.98804 2.37012 289.985 2.37012 645.247C2.37012 1000.51 290.367 1288.51 645.629 1288.51Z" stroke="#A8A5A5" stroke-width="2" stroke-linecap="round" stroke-linejoin="round"/>
<path d="M559.956 696.588L588.508 744.695L645.63 743.091V645.247L559.956 696.588Z" stroke="#A8A5A5" stroke-width="1.37125" stroke-miterlimit="10"/>
<path d="M559.953 593.907L531.393 645.248L559.953 696.588L645.627 645.248L559.953 593.907Z" stroke="#A8A5A5" stroke-width="1.37125" stroke-miterlimit="10"/>
<path d="M645.63 547.405L588.508 545.793L559.956 593.909L645.63 645.249V547.405Z" stroke="#A8A5A5" stroke-width="1.37125" stroke-miterlimit="10"/>
<path d="M731.303 696.588L759.864 645.248L731.303 593.907L645.629 645.248L731.303 696.588Z" stroke="#A8A5A5" stroke-width="1.37125" stroke-miterlimit="10"/>
<path d="M645.629 743.091L702.751 744.695L731.303 696.588L645.629 645.247V743.091Z" stroke="#A8A5A5" stroke-width="1.37125" stroke-miterlimit="10"/>
<path d="M645.629 547.405V645.249L731.303 593.909L702.751 545.793L645.629 547.405Z" stroke="#A8A5A5" stroke-width="1.37125" stroke-miterlimit="10"/>
<path d="M645.628 743.093L588.507 744.697L561.258 793.619L645.628 836.648V743.093Z" stroke="#A8A5A5" stroke-width="1.37125" stroke-miterlimit="10"/>
<path d="M645.628 547.402V453.847L561.258 496.876L588.507 545.79L645.628 547.402Z" stroke="#A8A5A5" stroke-width="1.37125" stroke-miterlimit="10"/>
<path d="M645.629 743.093V836.648L729.999 793.619L702.751 744.697L645.629 743.093Z" stroke="#A8A5A5" stroke-width="1.37125" stroke-miterlimit="10"/>
<path d="M645.629 547.402L702.751 545.79L729.999 496.876L645.629 453.847V547.402Z" stroke="#A8A5A5" stroke-width="1.37125" stroke-miterlimit="10"/>
<path d="M559.957 696.588L475.785 748.426L561.261 793.617L588.509 744.695L559.957 696.588Z" stroke="#A8A5A5" stroke-width="1.37125" stroke-miterlimit="10"/>
<path d="M531.396 645.247H474.283L475.784 748.426L559.956 696.588L531.396 645.247Z" stroke="#A8A5A5" stroke-width="1.37125" stroke-miterlimit="10"/>
<path d="M559.956 593.904L475.784 542.066L474.283 645.245H531.396L559.956 593.904Z" stroke="#A8A5A5" stroke-width="1.37125" stroke-miterlimit="10"/>
<path d="M588.509 545.791L561.261 496.877L475.785 542.068L559.957 593.907L588.509 545.791Z" stroke="#A8A5A5" stroke-width="1.37125" stroke-miterlimit="10"/>
<path d="M731.303 696.588L815.484 748.426L816.985 645.247H759.863L731.303 696.588Z" stroke="#A8A5A5" stroke-width="1.37125" stroke-miterlimit="10"/>
<path d="M731.303 593.904L759.863 645.245H816.985L815.484 542.066L731.303 593.904Z" stroke="#A8A5A5" stroke-width="1.37125" stroke-miterlimit="10"/>
<path d="M702.751 744.695L729.999 793.617L815.484 748.426L731.303 696.588L702.751 744.695Z" stroke="#A8A5A5" stroke-width="1.37125" stroke-miterlimit="10"/>
<path d="M731.303 593.907L815.484 542.068L729.999 496.877L702.75 545.791L731.303 593.907Z" stroke="#A8A5A5" stroke-width="1.37125" stroke-miterlimit="10"/>
<path d="M561.261 793.62L475.785 748.429L482.2 842.482L536.611 840.93L561.261 793.62Z" stroke="#A8A5A5" stroke-width="1.37125" stroke-miterlimit="10"/>
<path d="M561.258 793.617L536.608 840.927L566.472 883.108L645.627 836.647L561.258 793.617Z" stroke="#A8A5A5" stroke-width="1.37125" stroke-miterlimit="10"/>
<path d="M561.261 496.877L536.611 449.568L482.2 448.015L475.785 542.068L561.261 496.877Z" stroke="#A8A5A5" stroke-width="1.37125" stroke-miterlimit="10"/>
<path d="M566.472 407.387L536.608 449.567L561.258 496.877L645.627 453.847L566.472 407.387Z" stroke="#A8A5A5" stroke-width="1.37125" stroke-miterlimit="10"/>
<path d="M724.785 883.108L754.649 840.927L729.999 793.617L645.629 836.647L724.785 883.108Z" stroke="#A8A5A5" stroke-width="1.37125" stroke-miterlimit="10"/>
<path d="M729.998 793.62L754.647 840.93L809.058 842.482L815.482 748.429L729.998 793.62Z" stroke="#A8A5A5" stroke-width="1.37125" stroke-miterlimit="10"/>
<path d="M729.998 496.877L815.482 542.068L809.058 448.015L754.647 449.568L729.998 496.877Z" stroke="#A8A5A5" stroke-width="1.37125" stroke-miterlimit="10"/>
<path d="M729.999 496.877L754.649 449.567L724.785 407.387L645.629 453.847L729.999 496.877Z" stroke="#A8A5A5" stroke-width="1.37125" stroke-miterlimit="10"/>
<path d="M474.283 645.245L475.784 542.066L389.999 593.158L417.162 645.245H474.283Z" stroke="#A8A5A5" stroke-width="1.37125" stroke-miterlimit="10"/>
<path d="M474.283 645.247H417.161L389.999 697.334L475.784 748.426L474.283 645.247Z" stroke="#A8A5A5" stroke-width="1.37125" stroke-miterlimit="10"/>
<path d="M816.983 645.245H874.096L901.259 593.158L815.482 542.066L816.983 645.245Z" stroke="#A8A5A5" stroke-width="1.37125" stroke-miterlimit="10"/>
<path d="M816.984 645.247L815.483 748.426L901.259 697.334L874.096 645.247H816.984Z" stroke="#A8A5A5" stroke-width="1.37125" stroke-miterlimit="10"/>
<path d="M566.474 883.109L593.731 919.86L645.629 916.344V836.648L566.474 883.109Z" stroke="#A8A5A5" stroke-width="1.37125" stroke-miterlimit="10"/>
<path d="M645.629 374.154L593.731 370.637L566.474 407.389L645.629 453.849V374.154Z" stroke="#A8A5A5" stroke-width="1.37125" stroke-miterlimit="10"/>
<path d="M645.629 916.344L697.528 919.86L724.785 883.109L645.629 836.648V916.344Z" stroke="#A8A5A5" stroke-width="1.37125" stroke-miterlimit="10"/>
<path d="M724.785 407.389L697.528 370.637L645.629 374.154V453.849L724.785 407.389Z" stroke="#A8A5A5" stroke-width="1.37125" stroke-miterlimit="10"/>
<path d="M396.894 797.368L427.967 843.923L482.198 842.482L475.783 748.429L396.894 797.368Z" stroke="#A8A5A5" stroke-width="1.37125" stroke-miterlimit="10"/>
<path d="M389.999 697.333L365.632 747.688L396.895 797.364L475.784 748.425L389.999 697.333Z" stroke="#A8A5A5" stroke-width="1.37125" stroke-miterlimit="10"/>
<path d="M396.895 493.13L365.632 542.799L389.999 593.161L475.784 542.07L396.895 493.13Z" stroke="#A8A5A5" stroke-width="1.37125" stroke-miterlimit="10"/>
<path d="M482.198 448.016L427.967 446.575L396.894 493.13L475.783 542.069L482.198 448.016Z" stroke="#A8A5A5" stroke-width="1.37125" stroke-miterlimit="10"/>
<path d="M894.363 797.364L925.626 747.688L901.259 697.333L815.482 748.425L894.363 797.364Z" stroke="#A8A5A5" stroke-width="1.37125" stroke-miterlimit="10"/>
<path d="M809.06 842.482L863.291 843.923L894.365 797.368L815.484 748.429L809.06 842.482Z" stroke="#A8A5A5" stroke-width="1.37125" stroke-miterlimit="10"/>
<path d="M901.259 593.161L925.626 542.799L894.363 493.13L815.482 542.07L901.259 593.161Z" stroke="#A8A5A5" stroke-width="1.37125" stroke-miterlimit="10"/>
<path d="M894.365 493.13L863.291 446.575L809.06 448.016L815.484 542.069L894.365 493.13Z" stroke="#A8A5A5" stroke-width="1.37125" stroke-miterlimit="10"/>
<path d="M536.61 840.927L482.199 842.479L492.868 931.052L566.474 883.107L536.61 840.927Z" stroke="#A8A5A5" stroke-width="1.37125" stroke-miterlimit="10"/>
<path d="M566.474 407.389L492.868 359.436L482.199 448.017L536.61 449.57L566.474 407.389Z" stroke="#A8A5A5" stroke-width="1.37125" stroke-miterlimit="10"/>
<path d="M724.782 883.107L798.388 931.052L809.058 842.479L754.647 840.927L724.782 883.107Z" stroke="#A8A5A5" stroke-width="1.37125" stroke-miterlimit="10"/>
<path d="M754.647 449.57L809.058 448.017L798.388 359.436L724.782 407.389L754.647 449.57Z" stroke="#A8A5A5" stroke-width="1.37125" stroke-miterlimit="10"/>
<path d="M389.997 593.161L308.826 645.248L389.997 697.335L417.16 645.248L389.997 593.161Z" stroke="#A8A5A5" stroke-width="1.37125" stroke-miterlimit="10"/>
<path d="M874.097 645.248L901.26 697.335L982.431 645.248L901.26 593.161L874.097 645.248Z" stroke="#A8A5A5" stroke-width="1.37125" stroke-miterlimit="10"/>
<path d="M566.474 883.108L492.868 931.052L572.735 961.397L593.731 919.86L566.474 883.108Z" stroke="#A8A5A5" stroke-width="1.37125" stroke-miterlimit="10"/>
<path d="M593.731 370.638L572.735 329.1L492.868 359.436L566.474 407.389L593.731 370.638Z" stroke="#A8A5A5" stroke-width="1.37125" stroke-miterlimit="10"/>
<path d="M697.527 919.86L718.523 961.397L798.39 931.052L724.784 883.108L697.527 919.86Z" stroke="#A8A5A5" stroke-width="1.37125" stroke-miterlimit="10"/>
<path d="M724.784 407.389L798.39 359.436L718.523 329.1L697.527 370.638L724.784 407.389Z" stroke="#A8A5A5" stroke-width="1.37125" stroke-miterlimit="10"/>
<path d="M482.199 842.479L427.968 843.92L407.563 890.218L492.868 931.052L482.199 842.479Z" stroke="#A8A5A5" stroke-width="1.37125" stroke-miterlimit="10"/>
<path d="M482.199 448.017L492.868 359.436L407.563 400.279L427.968 446.576L482.199 448.017Z" stroke="#A8A5A5" stroke-width="1.37125" stroke-miterlimit="10"/>
<path d="M809.06 842.479L798.391 931.052L883.695 890.218L863.291 843.92L809.06 842.479Z" stroke="#A8A5A5" stroke-width="1.37125" stroke-miterlimit="10"/>
<path d="M809.06 448.017L863.291 446.576L883.695 400.279L798.391 359.436L809.06 448.017Z" stroke="#A8A5A5" stroke-width="1.37125" stroke-miterlimit="10"/>
<path d="M389.997 697.334L308.826 645.247L313.826 746.025L365.63 747.688L389.997 697.334Z" stroke="#A8A5A5" stroke-width="1.37125" stroke-miterlimit="10"/>
<path d="M389.997 593.163L365.63 542.8L313.826 544.472L308.826 645.25L389.997 593.163Z" stroke="#A8A5A5" stroke-width="1.37125" stroke-miterlimit="10"/>
<path d="M901.263 697.334L925.629 747.688L977.433 746.025L982.433 645.247L901.263 697.334Z" stroke="#A8A5A5" stroke-width="1.37125" stroke-miterlimit="10"/>
<path d="M901.263 593.163L982.433 645.25L977.433 544.472L925.629 542.8L901.263 593.163Z" stroke="#A8A5A5" stroke-width="1.37125" stroke-miterlimit="10"/>
<path d="M645.629 916.344L593.731 919.861L572.735 961.398L645.629 984.289V916.344Z" stroke="#A8A5A5" stroke-width="1.37125" stroke-miterlimit="10"/>
<path d="M645.629 374.15V306.205L572.735 329.097L593.731 370.634L645.629 374.15Z" stroke="#A8A5A5" stroke-width="1.37125" stroke-miterlimit="10"/>
<path d="M645.629 916.344V984.289L718.524 961.398L697.528 919.86L645.629 916.344Z" stroke="#A8A5A5" stroke-width="1.37125" stroke-miterlimit="10"/>
<path d="M645.629 374.151L697.528 370.634L718.524 329.097L645.629 306.205V374.151Z" stroke="#A8A5A5" stroke-width="1.37125" stroke-miterlimit="10"/>
<path d="M396.894 797.364L324 844.022L407.564 890.217L427.968 843.919L396.894 797.364Z" stroke="#A8A5A5" stroke-width="1.37125" stroke-miterlimit="10"/>
<path d="M365.632 747.688L313.828 746.024L324 844.022L396.894 797.365L365.632 747.688Z" stroke="#A8A5A5" stroke-width="1.37125" stroke-miterlimit="10"/>
<path d="M396.894 493.129L324 446.471L313.828 544.469L365.632 542.797L396.894 493.129Z" stroke="#A8A5A5" stroke-width="1.37125" stroke-miterlimit="10"/>
<path d="M427.968 446.576L407.564 400.278L324 446.473L396.894 493.131L427.968 446.576Z" stroke="#A8A5A5" stroke-width="1.37125" stroke-miterlimit="10"/>
<path d="M894.365 797.365L967.251 844.022L977.431 746.024L925.628 747.688L894.365 797.365Z" stroke="#A8A5A5" stroke-width="1.37125" stroke-miterlimit="10"/>
<path d="M863.29 843.919L883.694 890.217L967.249 844.022L894.363 797.364L863.29 843.919Z" stroke="#A8A5A5" stroke-width="1.37125" stroke-miterlimit="10"/>
<path d="M925.628 542.797L977.431 544.469L967.251 446.471L894.365 493.129L925.628 542.797Z" stroke="#A8A5A5" stroke-width="1.37125" stroke-miterlimit="10"/>
<path d="M894.363 493.131L967.249 446.473L883.694 400.278L863.29 446.576L894.363 493.131Z" stroke="#A8A5A5" stroke-width="1.37125" stroke-miterlimit="10"/>
<path d="M430.054 978.998L469.241 1017.32L517.554 1011.18L492.87 931.053L430.054 978.998Z" stroke="#A8A5A5" stroke-width="1.37125" stroke-miterlimit="10"/>
<path d="M407.563 890.217L392.666 936.334L430.052 978.995L492.868 931.051L407.563 890.217Z" stroke="#A8A5A5" stroke-width="1.37125" stroke-miterlimit="10"/>
<path d="M572.735 961.398L492.868 931.053L517.552 1011.18L561.654 1003.84L572.735 961.398Z" stroke="#A8A5A5" stroke-width="1.37125" stroke-miterlimit="10"/>
<path d="M773.706 1011.18L822.019 1017.32L861.207 978.998L798.39 931.053L773.706 1011.18Z" stroke="#A8A5A5" stroke-width="1.37125" stroke-miterlimit="10"/>
<path d="M718.523 961.398L729.605 1003.84L773.706 1011.18L798.391 931.053L718.523 961.398Z" stroke="#A8A5A5" stroke-width="1.37125" stroke-miterlimit="10"/>
<path d="M861.207 978.995L898.593 936.334L883.695 890.217L798.391 931.051L861.207 978.995Z" stroke="#A8A5A5" stroke-width="1.37125" stroke-miterlimit="10"/>
<path d="M430.052 311.499L392.666 354.16L407.563 400.278L492.868 359.435L430.052 311.499Z" stroke="#A8A5A5" stroke-width="1.37125" stroke-miterlimit="10"/>
<path d="M517.554 279.31L469.241 273.169L430.054 311.499L492.87 359.434L517.554 279.31Z" stroke="#A8A5A5" stroke-width="1.37125" stroke-miterlimit="10"/>
<path d="M572.735 329.098L561.654 286.66L517.552 279.31L492.868 359.434L572.735 329.098Z" stroke="#A8A5A5" stroke-width="1.37125" stroke-miterlimit="10"/>
<path d="M883.695 400.278L898.593 354.16L861.207 311.499L798.391 359.435L883.695 400.278Z" stroke="#A8A5A5" stroke-width="1.37125" stroke-miterlimit="10"/>
<path d="M861.207 311.499L822.019 273.169L773.706 279.31L798.39 359.434L861.207 311.499Z" stroke="#A8A5A5" stroke-width="1.37125" stroke-miterlimit="10"/>
<path d="M718.523 329.098L798.391 359.434L773.706 279.31L729.605 286.66L718.523 329.098Z" stroke="#A8A5A5" stroke-width="1.37125" stroke-miterlimit="10"/>
<path d="M572.736 961.394L561.655 1003.83L600.577 1034.29L645.631 984.286L572.736 961.394Z" stroke="#A8A5A5" stroke-width="1.37125" stroke-miterlimit="10"/>
<path d="M690.683 1034.29L729.605 1003.83L718.524 961.394L645.629 984.286L690.683 1034.29Z" stroke="#A8A5A5" stroke-width="1.37125" stroke-miterlimit="10"/>
<path d="M600.577 256.204L561.655 286.66L572.736 329.098L645.631 306.206L600.577 256.204Z" stroke="#A8A5A5" stroke-width="1.37125" stroke-miterlimit="10"/>
<path d="M718.524 329.098L729.605 286.66L690.683 256.204L645.629 306.206L718.524 329.098Z" stroke="#A8A5A5" stroke-width="1.37125" stroke-miterlimit="10"/>
<path d="M600.576 1034.29L645.63 1055.74L690.684 1034.29L645.63 984.29L600.576 1034.29Z" stroke="#A8A5A5" stroke-width="1.37125" stroke-miterlimit="10"/>
<path d="M690.684 256.202L645.63 234.751L600.576 256.202L645.63 306.205L690.684 256.202Z" stroke="#A8A5A5" stroke-width="1.37125" stroke-miterlimit="10"/>
<path d="M242.127 694.109L267.051 744.464L313.829 746.025L308.829 645.247L242.127 694.109Z" stroke="#A8A5A5" stroke-width="1.37125" stroke-miterlimit="10"/>
<path d="M242.125 596.385L219.997 645.247L242.125 694.109L308.826 645.247L242.125 596.385Z" stroke="#A8A5A5" stroke-width="1.37125" stroke-miterlimit="10"/>
<path d="M313.829 544.471L267.051 546.023L242.127 596.386L308.829 645.248L313.829 544.471Z" stroke="#A8A5A5" stroke-width="1.37125" stroke-miterlimit="10"/>
<path d="M1049.13 694.109L1071.26 645.247L1049.13 596.385L982.43 645.247L1049.13 694.109Z" stroke="#A8A5A5" stroke-width="1.37125" stroke-miterlimit="10"/>
<path d="M977.431 746.025L1024.21 744.464L1049.13 694.109L982.431 645.247L977.431 746.025Z" stroke="#A8A5A5" stroke-width="1.37125" stroke-miterlimit="10"/>
<path d="M977.431 544.471L982.431 645.248L1049.13 596.386L1024.21 546.023L977.431 544.471Z" stroke="#A8A5A5" stroke-width="1.37125" stroke-miterlimit="10"/>
<path d="M407.564 890.219L324 844.024L343.95 935.984L392.666 936.336L407.564 890.219Z" stroke="#A8A5A5" stroke-width="1.37125" stroke-miterlimit="10"/>
<path d="M883.696 890.219L898.593 936.336L947.318 935.984L967.251 844.024L883.696 890.219Z" stroke="#A8A5A5" stroke-width="1.37125" stroke-miterlimit="10"/>
<path d="M407.564 400.276L392.666 354.159L343.95 354.502L324 446.471L407.564 400.276Z" stroke="#A8A5A5" stroke-width="1.37125" stroke-miterlimit="10"/>
<path d="M883.696 400.276L967.251 446.471L947.318 354.502L898.593 354.159L883.696 400.276Z" stroke="#A8A5A5" stroke-width="1.37125" stroke-miterlimit="10"/>
<path d="M313.83 544.469L324.002 446.471L249.264 498.112L267.052 546.022L313.83 544.469Z" stroke="#A8A5A5" stroke-width="1.37125" stroke-miterlimit="10"/>
<path d="M313.83 746.024L267.052 744.463L249.264 792.381L324.002 844.022L313.83 746.024Z" stroke="#A8A5A5" stroke-width="1.37125" stroke-miterlimit="10"/>
<path d="M977.431 746.024L967.251 844.022L1042.01 792.381L1024.21 744.463L977.431 746.024Z" stroke="#A8A5A5" stroke-width="1.37125" stroke-miterlimit="10"/>
<path d="M977.431 544.469L1024.21 546.022L1042.01 498.112L967.251 446.471L977.431 544.469Z" stroke="#A8A5A5" stroke-width="1.37125" stroke-miterlimit="10"/>
<path d="M600.576 256.206L551.217 206.675L517.553 279.312L561.655 286.662L600.576 256.206Z" stroke="#A8A5A5" stroke-width="1.37125" stroke-miterlimit="10"/>
<path d="M729.604 286.662L773.706 279.312L740.042 206.675L690.683 256.206L729.604 286.662Z" stroke="#A8A5A5" stroke-width="1.37125" stroke-miterlimit="10"/>
<path d="M561.655 1003.83L517.553 1011.18L551.217 1083.82L600.576 1034.29L561.655 1003.83Z" stroke="#A8A5A5" stroke-width="1.37125" stroke-miterlimit="10"/>
<path d="M690.683 1034.29L740.042 1083.82L773.706 1011.18L729.604 1003.83L690.683 1034.29Z" stroke="#A8A5A5" stroke-width="1.37125" stroke-miterlimit="10"/>
<path d="M260.875 884.652L295.037 932.528L343.95 935.984L324.001 844.024L260.875 884.652Z" stroke="#A8A5A5" stroke-width="1.37125" stroke-miterlimit="10"/>
<path d="M249.263 792.383L231.75 836.887L260.876 884.652L324.001 844.023L249.263 792.383Z" stroke="#A8A5A5" stroke-width="1.37125" stroke-miterlimit="10"/>
<path d="M947.318 935.984L996.223 932.528L1030.38 884.652L967.25 844.024L947.318 935.984Z" stroke="#A8A5A5" stroke-width="1.37125" stroke-miterlimit="10"/>
<path d="M1030.38 884.652L1059.51 836.887L1042.01 792.383L967.251 844.023L1030.38 884.652Z" stroke="#A8A5A5" stroke-width="1.37125" stroke-miterlimit="10"/>
<path d="M260.876 405.842L231.75 453.606L249.263 498.111L324.001 446.471L260.876 405.842Z" stroke="#A8A5A5" stroke-width="1.37125" stroke-miterlimit="10"/>
<path d="M343.95 354.502L295.037 357.967L260.875 405.843L324.001 446.471L343.95 354.502Z" stroke="#A8A5A5" stroke-width="1.37125" stroke-miterlimit="10"/>
<path d="M1042.01 498.111L1059.51 453.606L1030.38 405.842L967.251 446.471L1042.01 498.111Z" stroke="#A8A5A5" stroke-width="1.37125" stroke-miterlimit="10"/>
<path d="M1030.38 405.843L996.223 357.967L947.318 354.502L967.25 446.471L1030.38 405.843Z" stroke="#A8A5A5" stroke-width="1.37125" stroke-miterlimit="10"/>
<path d="M392.666 936.336L343.95 935.984L370.804 1023.25L430.052 978.997L392.666 936.336Z" stroke="#A8A5A5" stroke-width="1.37125" stroke-miterlimit="10"/>
<path d="M861.205 978.997L920.454 1023.25L947.316 935.984L898.592 936.336L861.205 978.997Z" stroke="#A8A5A5" stroke-width="1.37125" stroke-miterlimit="10"/>
<path d="M430.052 311.498L370.804 267.242L343.95 354.502L392.666 354.159L430.052 311.498Z" stroke="#A8A5A5" stroke-width="1.37125" stroke-miterlimit="10"/>
<path d="M898.592 354.159L947.316 354.502L920.454 267.242L861.205 311.498L898.592 354.159Z" stroke="#A8A5A5" stroke-width="1.37125" stroke-miterlimit="10"/>
<path d="M517.553 1011.18L469.24 1017.32L460.251 1058.06L551.217 1083.82L517.553 1011.18Z" stroke="#A8A5A5" stroke-width="1.37125" stroke-miterlimit="10"/>
<path d="M773.707 1011.18L740.043 1083.82L831.008 1058.06L822.02 1017.32L773.707 1011.18Z" stroke="#A8A5A5" stroke-width="1.37125" stroke-miterlimit="10"/>
<path d="M517.553 279.312L551.217 206.675L460.251 232.439L469.24 273.171L517.553 279.312Z" stroke="#A8A5A5" stroke-width="1.37125" stroke-miterlimit="10"/>
<path d="M773.707 279.312L822.02 273.171L831.008 232.439L740.043 206.675L773.707 279.312Z" stroke="#A8A5A5" stroke-width="1.37125" stroke-miterlimit="10"/>
<path d="M645.629 1055.74V1090.33L740.043 1083.82L690.683 1034.29L645.629 1055.74Z" stroke="#A8A5A5" stroke-width="1.37125" stroke-miterlimit="10"/>
<path d="M600.575 1034.29L551.216 1083.82L645.629 1090.33V1055.74L600.575 1034.29Z" stroke="#A8A5A5" stroke-width="1.37125" stroke-miterlimit="10"/>
<path d="M690.683 256.203L740.043 206.672L645.629 200.163V234.753L690.683 256.203Z" stroke="#A8A5A5" stroke-width="1.37125" stroke-miterlimit="10"/>
<path d="M645.629 234.753V200.163L551.216 206.672L600.575 256.203L645.629 234.753Z" stroke="#A8A5A5" stroke-width="1.37125" stroke-miterlimit="10"/>
<path d="M267.05 546.022L249.261 498.112L183.177 550.834L242.126 596.385L267.05 546.022Z" stroke="#A8A5A5" stroke-width="1.37125" stroke-miterlimit="10"/>
<path d="M242.126 694.11L183.177 739.661L249.261 792.383L267.05 744.464L242.126 694.11Z" stroke="#A8A5A5" stroke-width="1.37125" stroke-miterlimit="10"/>
<path d="M1024.21 744.464L1042.01 792.383L1108.08 739.661L1049.13 694.11L1024.21 744.464Z" stroke="#A8A5A5" stroke-width="1.37125" stroke-miterlimit="10"/>
<path d="M1049.13 596.385L1108.08 550.834L1042.01 498.112L1024.21 546.022L1049.13 596.385Z" stroke="#A8A5A5" stroke-width="1.37125" stroke-miterlimit="10"/>
<path d="M430.051 978.996L370.803 1023.25L460.25 1058.06L469.239 1017.32L430.051 978.996Z" stroke="#A8A5A5" stroke-width="1.37125" stroke-miterlimit="10"/>
<path d="M822.02 1017.32L831.008 1058.06L920.456 1023.25L861.207 978.996L822.02 1017.32Z" stroke="#A8A5A5" stroke-width="1.37125" stroke-miterlimit="10"/>
<path d="M469.239 273.17L460.25 232.439L370.803 267.244L430.051 311.5L469.239 273.17Z" stroke="#A8A5A5" stroke-width="1.37125" stroke-miterlimit="10"/>
<path d="M861.207 311.5L920.456 267.244L831.008 232.439L822.02 273.17L861.207 311.5Z" stroke="#A8A5A5" stroke-width="1.37125" stroke-miterlimit="10"/>
<path d="M219.997 645.247H181.616L183.177 739.661L242.125 694.109L219.997 645.247Z" stroke="#A8A5A5" stroke-width="1.37125" stroke-miterlimit="10"/>
<path d="M242.125 596.385L183.177 550.834L181.616 645.247H219.997L242.125 596.385Z" stroke="#A8A5A5" stroke-width="1.37125" stroke-miterlimit="10"/>
<path d="M1049.14 694.109L1108.08 739.661L1109.64 645.247H1071.26L1049.14 694.109Z" stroke="#A8A5A5" stroke-width="1.37125" stroke-miterlimit="10"/>
<path d="M1049.14 596.385L1071.26 645.247H1109.64L1108.08 550.834L1049.14 596.385Z" stroke="#A8A5A5" stroke-width="1.37125" stroke-miterlimit="10"/>
<path d="M343.951 935.984L295.038 932.527L284.103 974.588L370.805 1023.25L343.951 935.984Z" stroke="#A8A5A5" stroke-width="1.37125" stroke-miterlimit="10"/>
<path d="M947.319 935.984L920.456 1023.25L1007.17 974.588L996.223 932.527L947.319 935.984Z" stroke="#A8A5A5" stroke-width="1.37125" stroke-miterlimit="10"/>
<path d="M343.951 354.502L370.805 267.242L284.103 315.907L295.038 357.967L343.951 354.502Z" stroke="#A8A5A5" stroke-width="1.37125" stroke-miterlimit="10"/>
<path d="M947.319 354.502L996.223 357.967L1007.17 315.907L920.456 267.242L947.319 354.502Z" stroke="#A8A5A5" stroke-width="1.37125" stroke-miterlimit="10"/>
<path d="M249.261 792.383L183.177 739.661L189.979 830.626L231.748 836.887L249.261 792.383Z" stroke="#A8A5A5" stroke-width="1.37125" stroke-miterlimit="10"/>
<path d="M1042.01 792.383L1059.51 836.887L1101.27 830.626L1108.08 739.661L1042.01 792.383Z" stroke="#A8A5A5" stroke-width="1.37125" stroke-miterlimit="10"/>
<path d="M249.261 498.112L231.748 453.607L189.979 459.868L183.177 550.834L249.261 498.112Z" stroke="#A8A5A5" stroke-width="1.37125" stroke-miterlimit="10"/>
<path d="M1042.01 498.112L1108.08 550.834L1101.27 459.868L1059.51 453.607L1042.01 498.112Z" stroke="#A8A5A5" stroke-width="1.37125" stroke-miterlimit="10"/>
<path d="M551.216 1083.82L596.767 1142.43L645.629 1126.34V1090.33L551.216 1083.82Z" stroke="#A8A5A5" stroke-width="1.37125" stroke-miterlimit="10"/>
<path d="M645.629 1090.33V1126.34L694.491 1142.43L740.043 1083.82L645.629 1090.33Z" stroke="#A8A5A5" stroke-width="1.37125" stroke-miterlimit="10"/>
<path d="M645.629 200.164V164.158L596.767 148.068L551.216 206.674L645.629 200.164Z" stroke="#A8A5A5" stroke-width="1.37125" stroke-miterlimit="10"/>
<path d="M740.043 206.674L694.491 148.068L645.629 164.158V200.164L740.043 206.674Z" stroke="#A8A5A5" stroke-width="1.37125" stroke-miterlimit="10"/>
<path d="M460.25 1058.06L453.989 1096.88L498.494 1128.27L551.216 1083.82L460.25 1058.06Z" stroke="#A8A5A5" stroke-width="1.37125" stroke-miterlimit="10"/>
<path d="M694.492 1142.43L744.855 1154L792.765 1128.27L740.043 1083.82L694.492 1142.43Z" stroke="#A8A5A5" stroke-width="1.37125" stroke-miterlimit="10"/>
<path d="M498.495 1128.27L546.405 1154L596.768 1142.43L551.216 1083.82L498.495 1128.27Z" stroke="#A8A5A5" stroke-width="1.37125" stroke-miterlimit="10"/>
<path d="M792.765 1128.27L837.269 1096.88L831.008 1058.06L740.043 1083.82L792.765 1128.27Z" stroke="#A8A5A5" stroke-width="1.37125" stroke-miterlimit="10"/>
<path d="M498.494 162.209L453.989 193.609L460.25 232.436L551.216 206.671L498.494 162.209Z" stroke="#A8A5A5" stroke-width="1.37125" stroke-miterlimit="10"/>
<path d="M596.767 148.066L546.404 136.496L498.494 162.209L551.216 206.671L596.767 148.066Z" stroke="#A8A5A5" stroke-width="1.37125" stroke-miterlimit="10"/>
<path d="M792.765 162.209L744.855 136.496L694.492 148.066L740.043 206.671L792.765 162.209Z" stroke="#A8A5A5" stroke-width="1.37125" stroke-miterlimit="10"/>
<path d="M831.008 232.436L837.269 193.609L792.765 162.209L740.043 206.671L831.008 232.436Z" stroke="#A8A5A5" stroke-width="1.37125" stroke-miterlimit="10"/>
<path d="M460.25 1058.06L370.803 1023.25L406.225 1099.05L453.989 1096.88L460.25 1058.06Z" stroke="#A8A5A5" stroke-width="1.37125" stroke-miterlimit="10"/>
<path d="M831.01 1058.06L837.271 1096.88L885.036 1099.05L920.458 1023.25L831.01 1058.06Z" stroke="#A8A5A5" stroke-width="1.37125" stroke-miterlimit="10"/>
<path d="M460.25 232.436L453.989 193.609L406.225 191.448L370.803 267.241L460.25 232.436Z" stroke="#A8A5A5" stroke-width="1.37125" stroke-miterlimit="10"/>
<path d="M831.01 232.436L920.458 267.241L885.036 191.448L837.271 193.609L831.01 232.436Z" stroke="#A8A5A5" stroke-width="1.37125" stroke-miterlimit="10"/>
<path d="M260.874 884.652L203.855 920.066L284.1 974.589L295.035 932.528L260.874 884.652Z" stroke="#A8A5A5" stroke-width="1.37125" stroke-miterlimit="10"/>
<path d="M231.748 836.886L189.979 830.625L203.856 920.064L260.875 884.651L231.748 836.886Z" stroke="#A8A5A5" stroke-width="1.37125" stroke-miterlimit="10"/>
<path d="M996.222 932.528L1007.17 974.589L1087.41 920.066L1030.38 884.652L996.222 932.528Z" stroke="#A8A5A5" stroke-width="1.37125" stroke-miterlimit="10"/>
<path d="M1030.38 884.651L1087.41 920.064L1101.27 830.625L1059.51 836.886L1030.38 884.651Z" stroke="#A8A5A5" stroke-width="1.37125" stroke-miterlimit="10"/>
<path d="M260.875 405.843L203.856 370.421L189.979 459.868L231.748 453.607L260.875 405.843Z" stroke="#A8A5A5" stroke-width="1.37125" stroke-miterlimit="10"/>
<path d="M295.035 357.968L284.1 315.907L203.855 370.421L260.874 405.843L295.035 357.968Z" stroke="#A8A5A5" stroke-width="1.37125" stroke-miterlimit="10"/>
<path d="M1059.51 453.607L1101.27 459.868L1087.41 370.421L1030.38 405.843L1059.51 453.607Z" stroke="#A8A5A5" stroke-width="1.37125" stroke-miterlimit="10"/>
<path d="M1030.38 405.843L1087.41 370.421L1007.17 315.907L996.222 357.968L1030.38 405.843Z" stroke="#A8A5A5" stroke-width="1.37125" stroke-miterlimit="10"/>
<path d="M181.617 645.247L183.178 550.834L134.093 600.193L149.394 645.247H181.617Z" stroke="#A8A5A5" stroke-width="1.37125" stroke-miterlimit="10"/>
<path d="M181.617 645.247H149.394L134.093 690.301L183.178 739.661L181.617 645.247Z" stroke="#A8A5A5" stroke-width="1.37125" stroke-miterlimit="10"/>
<path d="M1109.64 645.247H1141.87L1157.17 600.193L1108.08 550.834L1109.64 645.247Z" stroke="#A8A5A5" stroke-width="1.37125" stroke-miterlimit="10"/>
<path d="M1109.64 645.247L1108.08 739.661L1157.17 690.301L1141.87 645.247H1109.64Z" stroke="#A8A5A5" stroke-width="1.37125" stroke-miterlimit="10"/>
<path d="M316.289 1058.86L358.35 1098.28L406.225 1099.05L370.803 1023.25L316.289 1058.86Z" stroke="#A8A5A5" stroke-width="1.37125" stroke-miterlimit="10"/>
<path d="M284.101 974.587L275.962 1014.92L316.29 1058.86L370.804 1023.25L284.101 974.587Z" stroke="#A8A5A5" stroke-width="1.37125" stroke-miterlimit="10"/>
<path d="M885.035 1099.05L932.91 1098.28L974.962 1058.86L920.457 1023.25L885.035 1099.05Z" stroke="#A8A5A5" stroke-width="1.37125" stroke-miterlimit="10"/>
<path d="M974.962 1058.86L1015.3 1014.92L1007.17 974.587L920.456 1023.25L974.962 1058.86Z" stroke="#A8A5A5" stroke-width="1.37125" stroke-miterlimit="10"/>
<path d="M316.29 231.632L275.962 275.579L284.101 315.907L370.804 267.243L316.29 231.632Z" stroke="#A8A5A5" stroke-width="1.37125" stroke-miterlimit="10"/>
<path d="M406.225 191.448L358.35 192.203L316.289 231.63L370.803 267.241L406.225 191.448Z" stroke="#A8A5A5" stroke-width="1.37125" stroke-miterlimit="10"/>
<path d="M1007.17 315.907L1015.3 275.579L974.962 231.632L920.456 267.243L1007.17 315.907Z" stroke="#A8A5A5" stroke-width="1.37125" stroke-miterlimit="10"/>
<path d="M974.962 231.63L932.91 192.203L885.035 191.448L920.457 267.241L974.962 231.63Z" stroke="#A8A5A5" stroke-width="1.37125" stroke-miterlimit="10"/>
<path d="M132.695 773.325L152.619 821.638L189.979 830.626L183.178 739.661L132.695 773.325Z" stroke="#A8A5A5" stroke-width="1.37125" stroke-miterlimit="10"/>
<path d="M134.092 690.301L117.316 729.222L132.694 773.324L183.177 739.66L134.092 690.301Z" stroke="#A8A5A5" stroke-width="1.37125" stroke-miterlimit="10"/>
<path d="M1101.27 830.626L1138.64 821.638L1158.56 773.325L1108.08 739.661L1101.27 830.626Z" stroke="#A8A5A5" stroke-width="1.37125" stroke-miterlimit="10"/>
<path d="M1158.57 773.324L1173.94 729.222L1157.17 690.301L1108.08 739.66L1158.57 773.324Z" stroke="#A8A5A5" stroke-width="1.37125" stroke-miterlimit="10"/>
<path d="M132.694 517.17L117.316 561.272L134.092 600.194L183.177 550.834L132.694 517.17Z" stroke="#A8A5A5" stroke-width="1.37125" stroke-miterlimit="10"/>
<path d="M189.979 459.87L152.619 468.858L132.695 517.171L183.178 550.835L189.979 459.87Z" stroke="#A8A5A5" stroke-width="1.37125" stroke-miterlimit="10"/>
<path d="M1157.17 600.194L1173.94 561.272L1158.57 517.17L1108.08 550.834L1157.17 600.194Z" stroke="#A8A5A5" stroke-width="1.37125" stroke-miterlimit="10"/>
<path d="M1158.56 517.171L1138.64 468.858L1101.27 459.87L1108.08 550.835L1158.56 517.171Z" stroke="#A8A5A5" stroke-width="1.37125" stroke-miterlimit="10"/>
<path d="M645.629 1126.34L596.767 1142.43L645.629 1193.1L694.491 1142.43L645.629 1126.34Z" stroke="#A8A5A5" stroke-width="1.37125" stroke-miterlimit="10"/>
<path d="M645.629 164.159L694.491 148.069L645.629 97.3972L596.767 148.069L645.629 164.159Z" stroke="#A8A5A5" stroke-width="1.37125" stroke-miterlimit="10"/>
<path d="M453.989 1096.89L406.225 1099.05L446.853 1165.66L498.494 1128.28L453.989 1096.89Z" stroke="#A8A5A5" stroke-width="1.37125" stroke-miterlimit="10"/>
<path d="M792.765 1128.28L844.405 1165.66L885.034 1099.05L837.27 1096.89L792.765 1128.28Z" stroke="#A8A5A5" stroke-width="1.37125" stroke-miterlimit="10"/>
<path d="M498.494 162.21L446.853 124.841L406.225 191.448L453.989 193.61L498.494 162.21Z" stroke="#A8A5A5" stroke-width="1.37125" stroke-miterlimit="10"/>
<path d="M837.27 193.61L885.034 191.448L844.405 124.841L792.765 162.21L837.27 193.61Z" stroke="#A8A5A5" stroke-width="1.37125" stroke-miterlimit="10"/>
<path d="M284.1 974.588L203.855 920.066L232.013 1006.78L275.961 1014.92L284.1 974.588Z" stroke="#A8A5A5" stroke-width="1.37125" stroke-miterlimit="10"/>
<path d="M1007.17 974.588L1015.3 1014.92L1059.25 1006.78L1087.41 920.066L1007.17 974.588Z" stroke="#A8A5A5" stroke-width="1.37125" stroke-miterlimit="10"/>
<path d="M284.1 315.905L275.961 275.577L232.013 283.716L203.855 370.419L284.1 315.905Z" stroke="#A8A5A5" stroke-width="1.37125" stroke-miterlimit="10"/>
<path d="M1007.17 315.905L1087.41 370.419L1059.25 283.716L1015.3 275.577L1007.17 315.905Z" stroke="#A8A5A5" stroke-width="1.37125" stroke-miterlimit="10"/>
<path d="M189.979 830.626L152.618 821.638L141.117 860.825L203.856 920.065L189.979 830.626Z" stroke="#A8A5A5" stroke-width="1.37125" stroke-miterlimit="10"/>
<path d="M1101.27 830.626L1087.41 920.065L1150.14 860.825L1138.64 821.638L1101.27 830.626Z" stroke="#A8A5A5" stroke-width="1.37125" stroke-miterlimit="10"/>
<path d="M189.979 459.868L203.856 370.421L141.117 429.669L152.618 468.857L189.979 459.868Z" stroke="#A8A5A5" stroke-width="1.37125" stroke-miterlimit="10"/>
<path d="M1101.27 459.868L1138.64 468.857L1150.14 429.669L1087.41 370.421L1101.27 459.868Z" stroke="#A8A5A5" stroke-width="1.37125" stroke-miterlimit="10"/>
<path d="M134.091 600.194L97.0479 645.248L134.091 690.302L149.392 645.248L134.091 600.194Z" stroke="#A8A5A5" stroke-width="1.37125" stroke-miterlimit="10"/>
<path d="M1141.87 645.248L1157.17 690.302L1194.21 645.248L1157.17 600.194L1141.87 645.248Z" stroke="#A8A5A5" stroke-width="1.37125" stroke-miterlimit="10"/>
<path d="M694.491 1142.43L645.629 1193.1L746.407 1184.72L744.854 1154L694.491 1142.43Z" stroke="#A8A5A5" stroke-width="1.37125" stroke-miterlimit="10"/>
<path d="M546.405 1154L544.853 1184.72L645.63 1193.1L596.768 1142.43L546.405 1154Z" stroke="#A8A5A5" stroke-width="1.37125" stroke-miterlimit="10"/>
<path d="M596.768 148.069L645.63 97.3972L544.853 105.777L546.405 136.499L596.768 148.069Z" stroke="#A8A5A5" stroke-width="1.37125" stroke-miterlimit="10"/>
<path d="M744.854 136.499L746.407 105.777L645.629 97.3972L694.491 148.069L744.854 136.499Z" stroke="#A8A5A5" stroke-width="1.37125" stroke-miterlimit="10"/>
<path d="M744.856 1154L746.408 1184.72L844.407 1165.65L792.766 1128.27L744.856 1154Z" stroke="#A8A5A5" stroke-width="1.37125" stroke-miterlimit="10"/>
<path d="M498.494 1128.27L446.853 1165.65L544.851 1184.72L546.404 1154L498.494 1128.27Z" stroke="#A8A5A5" stroke-width="1.37125" stroke-miterlimit="10"/>
<path d="M546.404 136.499L544.851 105.777L446.853 124.844L498.494 162.213L546.404 136.499Z" stroke="#A8A5A5" stroke-width="1.37125" stroke-miterlimit="10"/>
<path d="M792.766 162.213L844.407 124.844L746.408 105.777L744.856 136.499L792.766 162.213Z" stroke="#A8A5A5" stroke-width="1.37125" stroke-miterlimit="10"/>
<path d="M134.093 690.301L97.0503 645.247L89.0396 718.141L117.317 729.223L134.093 690.301Z" stroke="#A8A5A5" stroke-width="1.37125" stroke-miterlimit="10"/>
<path d="M1157.17 690.301L1173.94 729.223L1202.23 718.141L1194.21 645.247L1157.17 690.301Z" stroke="#A8A5A5" stroke-width="1.37125" stroke-miterlimit="10"/>
<path d="M134.093 600.194L117.317 561.273L89.0396 572.354L97.0503 645.248L134.093 600.194Z" stroke="#A8A5A5" stroke-width="1.37125" stroke-miterlimit="10"/>
<path d="M1157.17 600.194L1194.21 645.248L1202.23 572.354L1173.94 561.273L1157.17 600.194Z" stroke="#A8A5A5" stroke-width="1.37125" stroke-miterlimit="10"/>
<path d="M406.224 1099.04L358.349 1098.28L354.884 1130.77L446.853 1165.65L406.224 1099.04Z" stroke="#A8A5A5" stroke-width="1.37125" stroke-miterlimit="10"/>
<path d="M885.034 1099.04L844.406 1165.65L936.366 1130.77L932.91 1098.28L885.034 1099.04Z" stroke="#A8A5A5" stroke-width="1.37125" stroke-miterlimit="10"/>
<path d="M406.224 191.448L446.853 124.841L354.884 159.723L358.349 192.203L406.224 191.448Z" stroke="#A8A5A5" stroke-width="1.37125" stroke-miterlimit="10"/>
<path d="M885.034 191.448L932.91 192.203L936.366 159.723L844.406 124.841L885.034 191.448Z" stroke="#A8A5A5" stroke-width="1.37125" stroke-miterlimit="10"/>
<path d="M160.107 946.928L192.588 995.841L232.015 1006.78L203.858 920.066L160.107 946.928Z" stroke="#A8A5A5" stroke-width="1.37125" stroke-miterlimit="10"/>
<path d="M141.117 860.823L132.531 898.201L160.106 946.926L203.856 920.063L141.117 860.823Z" stroke="#A8A5A5" stroke-width="1.37125" stroke-miterlimit="10"/>
<path d="M1059.25 1006.78L1098.67 995.841L1131.15 946.928L1087.41 920.066L1059.25 1006.78Z" stroke="#A8A5A5" stroke-width="1.37125" stroke-miterlimit="10"/>
<path d="M1131.15 946.926L1158.73 898.201L1150.14 860.823L1087.41 920.063L1131.15 946.926Z" stroke="#A8A5A5" stroke-width="1.37125" stroke-miterlimit="10"/>
<path d="M160.106 343.565L132.531 392.281L141.117 429.667L203.856 370.419L160.106 343.565Z" stroke="#A8A5A5" stroke-width="1.37125" stroke-miterlimit="10"/>
<path d="M232.015 283.718L192.588 294.653L160.107 343.567L203.858 370.421L232.015 283.718Z" stroke="#A8A5A5" stroke-width="1.37125" stroke-miterlimit="10"/>
<path d="M1150.14 429.667L1158.73 392.281L1131.15 343.565L1087.41 370.419L1150.14 429.667Z" stroke="#A8A5A5" stroke-width="1.37125" stroke-miterlimit="10"/>
<path d="M1131.15 343.566L1098.67 294.653L1059.25 283.718L1087.41 370.42L1131.15 343.566Z" stroke="#A8A5A5" stroke-width="1.37125" stroke-miterlimit="10"/>
<path d="M132.694 773.324L88.7637 798.008L141.116 860.825L152.618 821.637L132.694 773.324Z" stroke="#A8A5A5" stroke-width="1.37125" stroke-miterlimit="10"/>
<path d="M1138.64 821.637L1150.14 860.825L1202.5 798.008L1158.56 773.324L1138.64 821.637Z" stroke="#A8A5A5" stroke-width="1.37125" stroke-miterlimit="10"/>
<path d="M152.618 468.859L141.116 429.671L88.7637 492.488L132.694 517.172L152.618 468.859Z" stroke="#A8A5A5" stroke-width="1.37125" stroke-miterlimit="10"/>
<path d="M1158.56 517.172L1202.5 492.488L1150.14 429.671L1138.64 468.859L1158.56 517.172Z" stroke="#A8A5A5" stroke-width="1.37125" stroke-miterlimit="10"/>
<path d="M275.962 1014.92L232.014 1006.78L267.625 1087.02L316.29 1058.86L275.962 1014.92Z" stroke="#A8A5A5" stroke-width="1.37125" stroke-miterlimit="10"/>
<path d="M974.961 1058.86L1023.63 1087.02L1059.25 1006.78L1015.3 1014.92L974.961 1058.86Z" stroke="#A8A5A5" stroke-width="1.37125" stroke-miterlimit="10"/>
<path d="M316.29 231.631L267.625 203.473L232.014 283.718L275.962 275.578L316.29 231.631Z" stroke="#A8A5A5" stroke-width="1.37125" stroke-miterlimit="10"/>
<path d="M1015.3 275.578L1059.25 283.718L1023.63 203.473L974.961 231.631L1015.3 275.578Z" stroke="#A8A5A5" stroke-width="1.37125" stroke-miterlimit="10"/>
<path d="M117.316 729.225L89.0381 718.144L88.7637 798.011L132.694 773.327L117.316 729.225Z" stroke="#A8A5A5" stroke-width="1.37125" stroke-miterlimit="10"/>
<path d="M1158.57 773.327L1202.51 798.011L1202.23 718.144L1173.95 729.225L1158.57 773.327Z" stroke="#A8A5A5" stroke-width="1.37125" stroke-miterlimit="10"/>
<path d="M132.694 517.17L88.7637 492.486L89.0381 572.353L117.316 561.272L132.694 517.17Z" stroke="#A8A5A5" stroke-width="1.37125" stroke-miterlimit="10"/>
<path d="M1173.95 561.272L1202.23 572.353L1202.51 492.486L1158.57 517.17L1173.95 561.272Z" stroke="#A8A5A5" stroke-width="1.37125" stroke-miterlimit="10"/>
<path d="M316.289 1058.86L267.624 1087.02L354.884 1130.77L358.349 1098.28L316.289 1058.86Z" stroke="#A8A5A5" stroke-width="1.37125" stroke-miterlimit="10"/>
<path d="M932.906 1098.28L936.363 1130.77L1023.62 1087.02L974.959 1058.86L932.906 1098.28Z" stroke="#A8A5A5" stroke-width="1.37125" stroke-miterlimit="10"/>
<path d="M358.349 192.206L354.884 159.725L267.624 203.476L316.289 231.633L358.349 192.206Z" stroke="#A8A5A5" stroke-width="1.37125" stroke-miterlimit="10"/>
<path d="M974.959 231.633L1023.62 203.476L936.363 159.725L932.906 192.206L974.959 231.633Z" stroke="#A8A5A5" stroke-width="1.37125" stroke-miterlimit="10"/>
<path d="M61.1987 645.247L65.4185 697.145L89.039 718.141L97.0497 645.247H61.1987Z" stroke="#A8A5A5" stroke-width="1.37125" stroke-miterlimit="10"/>
<path d="M1202.23 718.141L1225.84 697.145L1230.05 645.247H1194.21L1202.23 718.141Z" stroke="#A8A5A5" stroke-width="1.37125" stroke-miterlimit="10"/>
<path d="M89.039 572.351L65.4185 593.347L61.1987 645.245H97.0497L89.039 572.351Z" stroke="#A8A5A5" stroke-width="1.37125" stroke-miterlimit="10"/>
<path d="M1194.21 645.245H1230.05L1225.84 593.347L1202.23 572.351L1194.21 645.245Z" stroke="#A8A5A5" stroke-width="1.37125" stroke-miterlimit="10"/>
<path d="M645.629 97.397L593.542 60.2766L543.179 77.9705L544.852 105.777L645.629 97.397Z" stroke="#A8A5A5" stroke-width="1.37125" stroke-miterlimit="10"/>
<path d="M746.407 105.777L748.071 77.9705L697.716 60.2766L645.629 97.397L746.407 105.777Z" stroke="#A8A5A5" stroke-width="1.37125" stroke-miterlimit="10"/>
<path d="M697.717 60.2743L645.63 47.1089L593.543 60.2743L645.63 97.3946L697.717 60.2743Z" stroke="#A8A5A5" stroke-width="1.37125" stroke-miterlimit="10"/>
<path d="M645.629 1193.1L697.716 1230.21L748.071 1212.51L746.407 1184.72L645.629 1193.1Z" stroke="#A8A5A5" stroke-width="1.37125" stroke-miterlimit="10"/>
<path d="M593.543 1230.21L645.63 1243.38L697.717 1230.21L645.63 1193.1L593.543 1230.21Z" stroke="#A8A5A5" stroke-width="1.37125" stroke-miterlimit="10"/>
<path d="M544.852 1184.72L543.179 1212.51L593.542 1230.21L645.629 1193.1L544.852 1184.72Z" stroke="#A8A5A5" stroke-width="1.37125" stroke-miterlimit="10"/>
<path d="M141.116 860.825L88.7637 798.009L102.126 883.313L132.531 898.203L141.116 860.825Z" stroke="#A8A5A5" stroke-width="1.37125" stroke-miterlimit="10"/>
<path d="M1150.14 860.825L1158.73 898.203L1189.13 883.313L1202.5 798.009L1150.14 860.825Z" stroke="#A8A5A5" stroke-width="1.37125" stroke-miterlimit="10"/>
<path d="M141.116 429.67L132.531 392.284L102.126 407.181L88.7637 492.486L141.116 429.67Z" stroke="#A8A5A5" stroke-width="1.37125" stroke-miterlimit="10"/>
<path d="M1150.14 429.67L1202.5 492.486L1189.13 407.181L1158.73 392.284L1150.14 429.67Z" stroke="#A8A5A5" stroke-width="1.37125" stroke-miterlimit="10"/>
<path d="M746.406 1184.72L748.07 1212.52L797.738 1216.45L844.404 1165.65L746.406 1184.72Z" stroke="#A8A5A5" stroke-width="1.37125" stroke-miterlimit="10"/>
<path d="M446.853 1165.65L493.519 1216.45L543.179 1212.52L544.851 1184.72L446.853 1165.65Z" stroke="#A8A5A5" stroke-width="1.37125" stroke-miterlimit="10"/>
<path d="M544.851 105.775L543.179 77.9689L493.519 74.0408L446.853 124.841L544.851 105.775Z" stroke="#A8A5A5" stroke-width="1.37125" stroke-miterlimit="10"/>
<path d="M844.404 124.841L797.738 74.0408L748.07 77.9689L746.406 105.775L844.404 124.841Z" stroke="#A8A5A5" stroke-width="1.37125" stroke-miterlimit="10"/>
<path d="M232.015 1006.78L192.587 995.84L191.833 1029.99L267.626 1087.02L232.015 1006.78Z" stroke="#A8A5A5" stroke-width="1.37125" stroke-miterlimit="10"/>
<path d="M1059.25 1006.78L1023.63 1087.02L1099.43 1029.99L1098.67 995.84L1059.25 1006.78Z" stroke="#A8A5A5" stroke-width="1.37125" stroke-miterlimit="10"/>
<path d="M232.015 283.718L267.626 203.473L191.833 260.492L192.587 294.653L232.015 283.718Z" stroke="#A8A5A5" stroke-width="1.37125" stroke-miterlimit="10"/>
<path d="M1059.25 283.718L1098.67 294.653L1099.43 260.492L1023.63 203.473L1059.25 283.718Z" stroke="#A8A5A5" stroke-width="1.37125" stroke-miterlimit="10"/>
<path d="M354.884 1130.77L354.541 1158.34L400.658 1188.75L446.853 1165.65L354.884 1130.77Z" stroke="#A8A5A5" stroke-width="1.37125" stroke-miterlimit="10"/>
<path d="M797.738 1216.45L844.301 1215.47L890.599 1188.75L844.404 1165.65L797.738 1216.45Z" stroke="#A8A5A5" stroke-width="1.37125" stroke-miterlimit="10"/>
<path d="M400.657 1188.75L446.955 1215.47L493.518 1216.45L446.852 1165.65L400.657 1188.75Z" stroke="#A8A5A5" stroke-width="1.37125" stroke-miterlimit="10"/>
<path d="M890.601 1188.75L936.718 1158.34L936.366 1130.77L844.406 1165.65L890.601 1188.75Z" stroke="#A8A5A5" stroke-width="1.37125" stroke-miterlimit="10"/>
<path d="M400.658 101.743L354.541 132.148L354.884 159.723L446.853 124.841L400.658 101.743Z" stroke="#A8A5A5" stroke-width="1.37125" stroke-miterlimit="10"/>
<path d="M493.518 74.0408L446.955 75.0357L400.657 101.744L446.852 124.841L493.518 74.0408Z" stroke="#A8A5A5" stroke-width="1.37125" stroke-miterlimit="10"/>
<path d="M890.599 101.744L844.302 75.0362L797.738 74.0413L844.405 124.842L890.599 101.744Z" stroke="#A8A5A5" stroke-width="1.37125" stroke-miterlimit="10"/>
<path d="M936.366 159.723L936.718 132.148L890.601 101.743L844.406 124.841L936.366 159.723Z" stroke="#A8A5A5" stroke-width="1.37125" stroke-miterlimit="10"/>
<path d="M89.0384 718.141L65.4179 697.145L53.5391 724.402L88.764 798.008L89.0384 718.141Z" stroke="#A8A5A5" stroke-width="1.37125" stroke-miterlimit="10"/>
<path d="M1202.23 718.141L1202.5 798.008L1237.73 724.402L1225.84 697.145L1202.23 718.141Z" stroke="#A8A5A5" stroke-width="1.37125" stroke-miterlimit="10"/>
<path d="M89.0384 572.353L88.764 492.486L53.5391 566.092L65.4179 593.349L89.0384 572.353Z" stroke="#A8A5A5" stroke-width="1.37125" stroke-miterlimit="10"/>
<path d="M1202.23 572.353L1225.84 593.349L1237.73 566.092L1202.5 492.486L1202.23 572.353Z" stroke="#A8A5A5" stroke-width="1.37125" stroke-miterlimit="10"/>
<path d="M354.884 1130.77L267.624 1087.02L311.88 1149.76L354.541 1158.35L354.884 1130.77Z" stroke="#A8A5A5" stroke-width="1.37125" stroke-miterlimit="10"/>
<path d="M936.366 1130.77L936.718 1158.35L979.379 1149.76L1023.63 1087.02L936.366 1130.77Z" stroke="#A8A5A5" stroke-width="1.37125" stroke-miterlimit="10"/>
<path d="M354.884 159.724L354.541 132.149L311.88 140.735L267.624 203.474L354.884 159.724Z" stroke="#A8A5A5" stroke-width="1.37125" stroke-miterlimit="10"/>
<path d="M936.366 159.724L1023.63 203.474L979.379 140.735L936.718 132.149L936.366 159.724Z" stroke="#A8A5A5" stroke-width="1.37125" stroke-miterlimit="10"/>
<path d="M132.53 898.203L102.125 883.313L125.223 966.877L160.105 946.928L132.53 898.203Z" stroke="#A8A5A5" stroke-width="1.37125" stroke-miterlimit="10"/>
<path d="M1131.15 946.928L1166.03 966.877L1189.13 883.313L1158.73 898.203L1131.15 946.928Z" stroke="#A8A5A5" stroke-width="1.37125" stroke-miterlimit="10"/>
<path d="M160.105 343.567L125.223 323.618L102.126 407.181L132.531 392.283L160.105 343.567Z" stroke="#A8A5A5" stroke-width="1.37125" stroke-miterlimit="10"/>
<path d="M1158.73 392.283L1189.13 407.181L1166.03 323.618L1131.15 343.567L1158.73 392.283Z" stroke="#A8A5A5" stroke-width="1.37125" stroke-miterlimit="10"/>
<path d="M160.105 946.93L125.223 966.88L191.831 1030L192.585 995.843L160.105 946.93Z" stroke="#A8A5A5" stroke-width="1.37125" stroke-miterlimit="10"/>
<path d="M1098.67 995.843L1099.43 1030L1166.03 966.88L1131.15 946.93L1098.67 995.843Z" stroke="#A8A5A5" stroke-width="1.37125" stroke-miterlimit="10"/>
<path d="M192.585 294.655L191.831 260.493L125.223 323.619L160.105 343.568L192.585 294.655Z" stroke="#A8A5A5" stroke-width="1.37125" stroke-miterlimit="10"/>
<path d="M1131.15 343.568L1166.03 323.619L1099.43 260.493L1098.67 294.655L1131.15 343.568Z" stroke="#A8A5A5" stroke-width="1.37125" stroke-miterlimit="10"/>
<path d="M56.7456 808.678L75.4173 862.909L102.125 883.313L88.7628 798.009L56.7456 808.678Z" stroke="#A8A5A5" stroke-width="1.37125" stroke-miterlimit="10"/>
<path d="M53.5382 724.4L43.5977 754.264L56.7459 808.676L88.763 798.006L53.5382 724.4Z" stroke="#A8A5A5" stroke-width="1.37125" stroke-miterlimit="10"/>
<path d="M1189.13 883.313L1215.85 862.909L1234.5 808.678L1202.5 798.009L1189.13 883.313Z" stroke="#A8A5A5" stroke-width="1.37125" stroke-miterlimit="10"/>
<path d="M1234.5 808.676L1247.65 754.264L1237.73 724.4L1202.5 798.006L1234.5 808.676Z" stroke="#A8A5A5" stroke-width="1.37125" stroke-miterlimit="10"/>
<path d="M56.7459 481.814L43.5977 536.225L53.5382 566.089L88.763 492.483L56.7459 481.814Z" stroke="#A8A5A5" stroke-width="1.37125" stroke-miterlimit="10"/>
<path d="M102.125 407.181L75.4173 427.585L56.7456 481.817L88.7628 492.486L102.125 407.181Z" stroke="#A8A5A5" stroke-width="1.37125" stroke-miterlimit="10"/>
<path d="M1237.73 566.089L1247.65 536.225L1234.5 481.814L1202.5 492.483L1237.73 566.089Z" stroke="#A8A5A5" stroke-width="1.37125" stroke-miterlimit="10"/>
<path d="M1234.5 481.817L1215.85 427.585L1189.13 407.181L1202.5 492.486L1234.5 481.817Z" stroke="#A8A5A5" stroke-width="1.37125" stroke-miterlimit="10"/>
<path d="M748.07 1212.52L697.715 1230.21L748.807 1256.88L797.738 1216.45L748.07 1212.52Z" stroke="#A8A5A5" stroke-width="1.37125" stroke-miterlimit="10"/>
<path d="M543.181 1212.52L493.521 1216.45L542.452 1256.88L593.544 1230.21L543.181 1212.52Z" stroke="#A8A5A5" stroke-width="1.37125" stroke-miterlimit="10"/>
<path d="M543.181 77.9709L593.544 60.277L542.452 33.6204L493.521 74.0428L543.181 77.9709Z" stroke="#A8A5A5" stroke-width="1.37125" stroke-miterlimit="10"/>
<path d="M748.07 77.9709L797.738 74.0428L748.807 33.6204L697.715 60.277L748.07 77.9709Z" stroke="#A8A5A5" stroke-width="1.37125" stroke-miterlimit="10"/>
<path d="M232.821 1100.9L273.552 1138.26L311.882 1149.76L267.626 1087.02L232.821 1100.9Z" stroke="#A8A5A5" stroke-width="1.37125" stroke-miterlimit="10"/>
<path d="M191.833 1029.99L193.994 1059.13L232.821 1100.9L267.626 1087.02L191.833 1029.99Z" stroke="#A8A5A5" stroke-width="1.37125" stroke-miterlimit="10"/>
<path d="M979.378 1149.76L1017.69 1138.26L1058.45 1100.9L1023.63 1087.02L979.378 1149.76Z" stroke="#A8A5A5" stroke-width="1.37125" stroke-miterlimit="10"/>
<path d="M1058.45 1100.9L1097.27 1059.13L1099.43 1029.99L1023.63 1087.02L1058.45 1100.9Z" stroke="#A8A5A5" stroke-width="1.37125" stroke-miterlimit="10"/>
<path d="M232.821 189.597L193.994 231.366L191.833 260.493L267.626 203.474L232.821 189.597Z" stroke="#A8A5A5" stroke-width="1.37125" stroke-miterlimit="10"/>
<path d="M311.882 140.732L273.552 152.233L232.821 189.594L267.626 203.471L311.882 140.732Z" stroke="#A8A5A5" stroke-width="1.37125" stroke-miterlimit="10"/>
<path d="M1099.43 260.493L1097.27 231.366L1058.45 189.597L1023.63 203.474L1099.43 260.493Z" stroke="#A8A5A5" stroke-width="1.37125" stroke-miterlimit="10"/>
<path d="M1058.45 189.594L1017.69 152.233L979.378 140.732L1023.63 203.471L1058.45 189.594Z" stroke="#A8A5A5" stroke-width="1.37125" stroke-miterlimit="10"/>
<path d="M61.1981 645.247H30.416L53.539 724.403L65.4179 697.145L61.1981 645.247Z" stroke="#A8A5A5" stroke-width="1.37125" stroke-miterlimit="10"/>
<path d="M1225.84 697.145L1237.73 724.403L1260.85 645.247H1230.05L1225.84 697.145Z" stroke="#A8A5A5" stroke-width="1.37125" stroke-miterlimit="10"/>
<path d="M65.4179 593.352L53.539 566.095L30.416 645.25H61.1981L65.4179 593.352Z" stroke="#A8A5A5" stroke-width="1.37125" stroke-miterlimit="10"/>
<path d="M1225.84 593.352L1230.05 645.25H1260.85L1237.73 566.095L1225.84 593.352Z" stroke="#A8A5A5" stroke-width="1.37125" stroke-miterlimit="10"/>
<path d="M645.629 1243.38V1262.41L748.808 1256.87L697.716 1230.21L645.629 1243.38Z" stroke="#A8A5A5" stroke-width="1.37125" stroke-miterlimit="10"/>
<path d="M593.543 1230.21L542.451 1256.87L645.629 1262.41V1243.38L593.543 1230.21Z" stroke="#A8A5A5" stroke-width="1.37125" stroke-miterlimit="10"/>
<path d="M697.716 60.2759L748.808 33.6192L645.629 28.0872V47.1105L697.716 60.2759Z" stroke="#A8A5A5" stroke-width="1.37125" stroke-miterlimit="10"/>
<path d="M645.629 47.1105V28.0872L542.451 33.6192L593.543 60.2759L645.629 47.1105Z" stroke="#A8A5A5" stroke-width="1.37125" stroke-miterlimit="10"/>
<path d="M354.542 1158.35L311.881 1149.76L359.817 1202.12L400.66 1188.75L354.542 1158.35Z" stroke="#A8A5A5" stroke-width="1.37125" stroke-miterlimit="10"/>
<path d="M890.599 1188.75L931.441 1202.12L979.377 1149.76L936.716 1158.35L890.599 1188.75Z" stroke="#A8A5A5" stroke-width="1.37125" stroke-miterlimit="10"/>
<path d="M400.66 101.744L359.817 88.3816L311.881 140.734L354.542 132.149L400.66 101.744Z" stroke="#A8A5A5" stroke-width="1.37125" stroke-miterlimit="10"/>
<path d="M936.716 132.149L979.377 140.734L931.441 88.3816L890.598 101.744L936.716 132.149Z" stroke="#A8A5A5" stroke-width="1.37125" stroke-miterlimit="10"/>
<path d="M797.739 1216.44L748.808 1256.88L842.861 1234.13L844.302 1215.47L797.739 1216.44Z" stroke="#A8A5A5" stroke-width="1.37125" stroke-miterlimit="10"/>
<path d="M446.957 1215.47L448.398 1234.13L542.451 1256.88L493.52 1216.44L446.957 1215.47Z" stroke="#A8A5A5" stroke-width="1.37125" stroke-miterlimit="10"/>
<path d="M493.52 74.0428L542.451 33.6204L448.398 56.366L446.957 75.0377L493.52 74.0428Z" stroke="#A8A5A5" stroke-width="1.37125" stroke-miterlimit="10"/>
<path d="M844.302 75.0377L842.861 56.366L748.808 33.6204L797.739 74.0428L844.302 75.0377Z" stroke="#A8A5A5" stroke-width="1.37125" stroke-miterlimit="10"/>
<path d="M102.126 883.314L75.4183 862.91L74.4233 893.984L125.224 966.878L102.126 883.314Z" stroke="#A8A5A5" stroke-width="1.37125" stroke-miterlimit="10"/>
<path d="M1189.13 883.315L1166.04 966.878L1216.84 893.984L1215.85 862.911L1189.13 883.315Z" stroke="#A8A5A5" stroke-width="1.37125" stroke-miterlimit="10"/>
<path d="M102.126 407.181L125.224 323.618L74.4233 396.512L75.4183 427.586L102.126 407.181Z" stroke="#A8A5A5" stroke-width="1.37125" stroke-miterlimit="10"/>
<path d="M1189.13 407.181L1215.85 427.586L1216.84 396.512L1166.04 323.618L1189.13 407.181Z" stroke="#A8A5A5" stroke-width="1.37125" stroke-miterlimit="10"/>
<path d="M191.831 1029.99L125.223 966.877L162.592 1041.62L193.992 1059.13L191.831 1029.99Z" stroke="#A8A5A5" stroke-width="1.37125" stroke-miterlimit="10"/>
<path d="M1099.43 1029.99L1097.27 1059.13L1128.67 1041.62L1166.03 966.877L1099.43 1029.99Z" stroke="#A8A5A5" stroke-width="1.37125" stroke-miterlimit="10"/>
<path d="M191.831 260.494L193.992 231.367L162.592 248.881L125.223 323.619L191.831 260.494Z" stroke="#A8A5A5" stroke-width="1.37125" stroke-miterlimit="10"/>
<path d="M1099.43 260.494L1166.03 323.619L1128.67 248.881L1097.27 231.367L1099.43 260.494Z" stroke="#A8A5A5" stroke-width="1.37125" stroke-miterlimit="10"/>
<path d="M844.303 1215.47L842.862 1234.13L931.443 1202.11L890.6 1188.75L844.303 1215.47Z" stroke="#A8A5A5" stroke-width="1.37125" stroke-miterlimit="10"/>
<path d="M400.658 1188.75L359.815 1202.11L448.396 1234.13L446.956 1215.47L400.658 1188.75Z" stroke="#A8A5A5" stroke-width="1.37125" stroke-miterlimit="10"/>
<path d="M446.956 75.0355L448.396 56.3638L359.815 88.3809L400.658 101.744L446.956 75.0355Z" stroke="#A8A5A5" stroke-width="1.37125" stroke-miterlimit="10"/>
<path d="M890.6 101.744L931.443 88.3809L842.862 56.3638L844.303 75.0355L890.6 101.744Z" stroke="#A8A5A5" stroke-width="1.37125" stroke-miterlimit="10"/>
<path d="M53.539 724.403L30.416 645.247L26.5479 729.617L43.5985 754.267L53.539 724.403Z" stroke="#A8A5A5" stroke-width="1.37125" stroke-miterlimit="10"/>
<path d="M1237.73 724.403L1247.65 754.267L1264.71 729.617L1260.85 645.247L1237.73 724.403Z" stroke="#A8A5A5" stroke-width="1.37125" stroke-miterlimit="10"/>
<path d="M53.539 566.09L43.5985 536.226L26.5479 560.876L30.416 645.245L53.539 566.09Z" stroke="#A8A5A5" stroke-width="1.37125" stroke-miterlimit="10"/>
<path d="M1237.73 566.09L1260.85 645.245L1264.71 560.876L1247.65 536.226L1237.73 566.09Z" stroke="#A8A5A5" stroke-width="1.37125" stroke-miterlimit="10"/>
<path d="M311.881 1149.76L273.551 1138.26L279.701 1158.18L359.817 1202.11L311.881 1149.76Z" stroke="#A8A5A5" stroke-width="1.37125" stroke-miterlimit="10"/>
<path d="M979.38 1149.76L931.444 1202.11L1011.56 1158.18L1017.69 1138.26L979.38 1149.76Z" stroke="#A8A5A5" stroke-width="1.37125" stroke-miterlimit="10"/>
<path d="M311.881 140.734L359.817 88.3816L279.701 132.312L273.551 152.236L311.881 140.734Z" stroke="#A8A5A5" stroke-width="1.37125" stroke-miterlimit="10"/>
<path d="M979.38 140.734L1017.69 152.236L1011.56 132.312L931.444 88.3816L979.38 140.734Z" stroke="#A8A5A5" stroke-width="1.37125" stroke-miterlimit="10"/>
<path d="M106.159 977.049L136.881 1023.83L162.594 1041.62L125.225 966.877L106.159 977.049Z" stroke="#A8A5A5" stroke-width="1.37125" stroke-miterlimit="10"/>
<path d="M74.4229 893.98L78.351 925.234L106.157 977.047L125.223 966.875L74.4229 893.98Z" stroke="#A8A5A5" stroke-width="1.37125" stroke-miterlimit="10"/>
<path d="M1128.66 1041.62L1154.39 1023.83L1185.11 977.049L1166.03 966.877L1128.66 1041.62Z" stroke="#A8A5A5" stroke-width="1.37125" stroke-miterlimit="10"/>
<path d="M1185.11 977.047L1212.9 925.234L1216.84 893.98L1166.04 966.875L1185.11 977.047Z" stroke="#A8A5A5" stroke-width="1.37125" stroke-miterlimit="10"/>
<path d="M106.157 313.446L78.351 365.25L74.4229 396.512L125.223 323.618L106.157 313.446Z" stroke="#A8A5A5" stroke-width="1.37125" stroke-miterlimit="10"/>
<path d="M162.594 248.878L136.881 266.667L106.159 313.445L125.225 323.617L162.594 248.878Z" stroke="#A8A5A5" stroke-width="1.37125" stroke-miterlimit="10"/>
<path d="M1216.84 396.512L1212.9 365.25L1185.11 313.446L1166.04 323.618L1216.84 396.512Z" stroke="#A8A5A5" stroke-width="1.37125" stroke-miterlimit="10"/>
<path d="M1185.11 313.445L1154.39 266.667L1128.66 248.878L1166.03 323.617L1185.11 313.445Z" stroke="#A8A5A5" stroke-width="1.37125" stroke-miterlimit="10"/>
<path d="M56.7481 808.681L34.0024 815.097L74.4249 893.986L75.4198 862.912L56.7481 808.681Z" stroke="#A8A5A5" stroke-width="1.37125" stroke-miterlimit="10"/>
<path d="M1215.85 862.912L1216.83 893.986L1257.27 815.097L1234.5 808.681L1215.85 862.912Z" stroke="#A8A5A5" stroke-width="1.37125" stroke-miterlimit="10"/>
<path d="M75.4198 427.588L74.4249 396.514L34.0024 475.395L56.7481 481.819L75.4198 427.588Z" stroke="#A8A5A5" stroke-width="1.37125" stroke-miterlimit="10"/>
<path d="M1234.5 481.819L1257.27 475.395L1216.83 396.514L1215.85 427.588L1234.5 481.819Z" stroke="#A8A5A5" stroke-width="1.37125" stroke-miterlimit="10"/>
<path d="M43.5985 754.265L26.5479 729.615L34.0011 815.092L56.7467 808.676L43.5985 754.265Z" stroke="#A8A5A5" stroke-width="1.37125" stroke-miterlimit="10"/>
<path d="M1234.5 808.676L1257.27 815.092L1264.71 729.615L1247.65 754.265L1234.5 808.676Z" stroke="#A8A5A5" stroke-width="1.37125" stroke-miterlimit="10"/>
<path d="M56.7467 481.816L34.0011 475.392L26.5479 560.876L43.5985 536.227L56.7467 481.816Z" stroke="#A8A5A5" stroke-width="1.37125" stroke-miterlimit="10"/>
<path d="M1247.65 536.227L1264.71 560.876L1257.27 475.392L1234.5 481.816L1247.65 536.227Z" stroke="#A8A5A5" stroke-width="1.37125" stroke-miterlimit="10"/>
<path d="M232.818 189.599L207.053 182.798L162.591 248.882L193.991 231.368L232.818 189.599Z" stroke="#A8A5A5" stroke-width="1.37125" stroke-miterlimit="10"/>
<path d="M1097.27 231.368L1128.67 248.882L1084.21 182.798L1058.45 189.599L1097.27 231.368Z" stroke="#A8A5A5" stroke-width="1.37125" stroke-miterlimit="10"/>
<path d="M193.991 1059.13L162.591 1041.62L207.053 1107.7L232.818 1100.9L193.991 1059.13Z" stroke="#A8A5A5" stroke-width="1.37125" stroke-miterlimit="10"/>
<path d="M1058.45 1100.9L1084.21 1107.7L1128.67 1041.62L1097.27 1059.13L1058.45 1100.9Z" stroke="#A8A5A5" stroke-width="1.37125" stroke-miterlimit="10"/>
<path d="M11.1943 645.247L14.0933 702.36L26.5468 729.617L30.4149 645.247H11.1943Z" stroke="#A8A5A5" stroke-width="1.37125" stroke-miterlimit="10"/>
<path d="M1264.71 729.617L1277.16 702.36L1280.05 645.247H1260.85L1264.71 729.617Z" stroke="#A8A5A5" stroke-width="1.37125" stroke-miterlimit="10"/>
<path d="M26.5468 560.879L14.0933 588.128L11.1943 645.249H30.4149L26.5468 560.879Z" stroke="#A8A5A5" stroke-width="1.37125" stroke-miterlimit="10"/>
<path d="M1264.71 560.879L1260.85 645.249H1280.05L1277.16 588.128L1264.71 560.879Z" stroke="#A8A5A5" stroke-width="1.37125" stroke-miterlimit="10"/>
<path d="M273.55 152.234L279.7 132.31L207.054 182.793L232.819 189.594L273.55 152.234Z" stroke="#A8A5A5" stroke-width="1.37125" stroke-miterlimit="10"/>
<path d="M1058.45 189.594L1084.21 182.793L1011.56 132.31L1017.69 152.234L1058.45 189.594Z" stroke="#A8A5A5" stroke-width="1.37125" stroke-miterlimit="10"/>
<path d="M232.819 1100.9L207.054 1107.7L279.7 1158.18L273.55 1138.26L232.819 1100.9Z" stroke="#A8A5A5" stroke-width="1.37125" stroke-miterlimit="10"/>
<path d="M1017.69 1138.26L1011.56 1158.18L1084.21 1107.7L1058.45 1100.9L1017.69 1138.26Z" stroke="#A8A5A5" stroke-width="1.37125" stroke-miterlimit="10"/>
<path d="M542.451 1256.87L594.289 1278.73L645.629 1275.84V1262.41L542.451 1256.87Z" stroke="#A8A5A5" stroke-width="1.37125" stroke-miterlimit="10"/>
<path d="M645.629 1262.41V1275.84L696.97 1278.73L748.808 1256.87L645.629 1262.41Z" stroke="#A8A5A5" stroke-width="1.37125" stroke-miterlimit="10"/>
<path d="M645.629 28.0877V14.6565L594.289 11.7661L542.451 33.6198L645.629 28.0877Z" stroke="#A8A5A5" stroke-width="1.37125" stroke-miterlimit="10"/>
<path d="M748.808 33.6198L696.97 11.7661L645.629 14.6565V28.0877L748.808 33.6198Z" stroke="#A8A5A5" stroke-width="1.37125" stroke-miterlimit="10"/>
<path d="M748.808 1256.88L793.999 1264.33L841.309 1247.27L842.861 1234.13L748.808 1256.88Z" stroke="#A8A5A5" stroke-width="1.37125" stroke-miterlimit="10"/>
<path d="M696.97 1278.73L745.077 1276.78L793.999 1264.33L748.808 1256.87L696.97 1278.73Z" stroke="#A8A5A5" stroke-width="1.37125" stroke-miterlimit="10"/>
<path d="M497.259 1264.33L546.173 1276.78L594.289 1278.73L542.45 1256.87L497.259 1264.33Z" stroke="#A8A5A5" stroke-width="1.37125" stroke-miterlimit="10"/>
<path d="M448.397 1234.13L449.95 1247.27L497.259 1264.33L542.451 1256.88L448.397 1234.13Z" stroke="#A8A5A5" stroke-width="1.37125" stroke-miterlimit="10"/>
<path d="M542.451 33.6192L497.259 26.166L449.95 43.2167L448.397 56.3649L542.451 33.6192Z" stroke="#A8A5A5" stroke-width="1.37125" stroke-miterlimit="10"/>
<path d="M594.289 11.7661L546.173 13.7131L497.259 26.1666L542.45 33.6198L594.289 11.7661Z" stroke="#A8A5A5" stroke-width="1.37125" stroke-miterlimit="10"/>
<path d="M842.861 56.3649L841.309 43.2167L793.999 26.166L748.808 33.6192L842.861 56.3649Z" stroke="#A8A5A5" stroke-width="1.37125" stroke-miterlimit="10"/>
<path d="M793.999 26.1666L745.077 13.7131L696.97 11.7661L748.808 33.6198L793.999 26.1666Z" stroke="#A8A5A5" stroke-width="1.37125" stroke-miterlimit="10"/>
<path d="M842.861 1234.13L841.309 1247.27L883.489 1237.34L931.442 1202.11L842.861 1234.13Z" stroke="#A8A5A5" stroke-width="1.37125" stroke-miterlimit="10"/>
<path d="M359.815 1202.11L407.768 1237.34L449.949 1247.27L448.397 1234.13L359.815 1202.11Z" stroke="#A8A5A5" stroke-width="1.37125" stroke-miterlimit="10"/>
<path d="M448.397 56.364L449.949 43.2158L407.768 53.1563L359.815 88.3812L448.397 56.364Z" stroke="#A8A5A5" stroke-width="1.37125" stroke-miterlimit="10"/>
<path d="M931.442 88.3812L883.489 53.1563L841.309 43.2158L842.861 56.364L931.442 88.3812Z" stroke="#A8A5A5" stroke-width="1.37125" stroke-miterlimit="10"/>
<path d="M279.7 1158.19L287.042 1173.55L329.48 1201.84L359.816 1202.12L279.7 1158.19Z" stroke="#A8A5A5" stroke-width="1.37125" stroke-miterlimit="10"/>
<path d="M883.49 1237.34L920.242 1225.46L961.779 1201.84L931.443 1202.11L883.49 1237.34Z" stroke="#A8A5A5" stroke-width="1.37125" stroke-miterlimit="10"/>
<path d="M329.479 1201.84L371.017 1225.46L407.768 1237.34L359.816 1202.11L329.479 1201.84Z" stroke="#A8A5A5" stroke-width="1.37125" stroke-miterlimit="10"/>
<path d="M961.78 1201.84L1004.22 1173.55L1011.56 1158.19L931.444 1202.12L961.78 1201.84Z" stroke="#A8A5A5" stroke-width="1.37125" stroke-miterlimit="10"/>
<path d="M329.48 88.656L287.042 116.934L279.7 132.312L359.816 88.3816L329.48 88.656Z" stroke="#A8A5A5" stroke-width="1.37125" stroke-miterlimit="10"/>
<path d="M407.768 53.157L371.017 65.0358L329.479 88.6563L359.816 88.3819L407.768 53.157Z" stroke="#A8A5A5" stroke-width="1.37125" stroke-miterlimit="10"/>
<path d="M961.779 88.6563L920.242 65.0358L883.49 53.157L931.443 88.3819L961.779 88.6563Z" stroke="#A8A5A5" stroke-width="1.37125" stroke-miterlimit="10"/>
<path d="M1011.56 132.312L1004.22 116.934L961.78 88.656L931.444 88.3816L1011.56 132.312Z" stroke="#A8A5A5" stroke-width="1.37125" stroke-miterlimit="10"/>
<path d="M74.4249 893.981L34.0024 815.092L60.6591 900.877L78.353 925.235L74.4249 893.981Z" stroke="#A8A5A5" stroke-width="1.37125" stroke-miterlimit="10"/>
<path d="M1216.84 893.981L1212.9 925.235L1230.6 900.877L1257.27 815.092L1216.84 893.981Z" stroke="#A8A5A5" stroke-width="1.37125" stroke-miterlimit="10"/>
<path d="M74.4249 396.513L78.353 365.25L60.6591 389.617L34.0024 475.394L74.4249 396.513Z" stroke="#A8A5A5" stroke-width="1.37125" stroke-miterlimit="10"/>
<path d="M1216.84 396.513L1257.27 475.394L1230.6 389.617L1212.9 365.25L1216.84 396.513Z" stroke="#A8A5A5" stroke-width="1.37125" stroke-miterlimit="10"/>
<path d="M26.5484 729.617L14.0949 702.36L12.1479 730.921L34.0016 815.094L26.5484 729.617Z" stroke="#A8A5A5" stroke-width="1.37125" stroke-miterlimit="10"/>
<path d="M1264.71 729.617L1257.26 815.094L1279.12 730.921L1277.16 702.36L1264.71 729.617Z" stroke="#A8A5A5" stroke-width="1.37125" stroke-miterlimit="10"/>
<path d="M26.5484 560.876L34.0016 475.392L12.1479 559.573L14.0949 588.125L26.5484 560.876Z" stroke="#A8A5A5" stroke-width="1.37125" stroke-miterlimit="10"/>
<path d="M1264.71 560.876L1277.16 588.125L1279.12 559.573L1257.26 475.392L1264.71 560.876Z" stroke="#A8A5A5" stroke-width="1.37125" stroke-miterlimit="10"/>
<path d="M162.594 1041.62L136.88 1023.83L148.45 1048.75L207.056 1107.7L162.594 1041.62Z" stroke="#A8A5A5" stroke-width="1.37125" stroke-miterlimit="10"/>
<path d="M1128.66 1041.62L1084.21 1107.7L1142.82 1048.75L1154.39 1023.83L1128.66 1041.62Z" stroke="#A8A5A5" stroke-width="1.37125" stroke-miterlimit="10"/>
<path d="M162.594 248.882L207.056 182.798L148.45 241.746L136.88 266.67L162.594 248.882Z" stroke="#A8A5A5" stroke-width="1.37125" stroke-miterlimit="10"/>
<path d="M1128.66 248.882L1154.39 266.67L1142.82 241.746L1084.21 182.798L1128.66 248.882Z" stroke="#A8A5A5" stroke-width="1.37125" stroke-miterlimit="10"/>
<path d="M279.7 1158.18L207.054 1107.7L256.585 1156.78L287.041 1173.55L279.7 1158.18Z" stroke="#A8A5A5" stroke-width="1.37125" stroke-miterlimit="10"/>
<path d="M1011.56 1158.18L1004.22 1173.55L1034.66 1156.78L1084.21 1107.7L1011.56 1158.18Z" stroke="#A8A5A5" stroke-width="1.37125" stroke-miterlimit="10"/>
<path d="M279.7 132.312L287.041 116.934L256.585 133.71L207.054 182.795L279.7 132.312Z" stroke="#A8A5A5" stroke-width="1.37125" stroke-miterlimit="10"/>
<path d="M1011.56 132.312L1084.21 182.795L1034.66 133.71L1004.22 116.934L1011.56 132.312Z" stroke="#A8A5A5" stroke-width="1.37125" stroke-miterlimit="10"/>
<path d="M645.63 1275.84L594.289 1278.73L645.63 1288.5L696.97 1278.73L645.63 1275.84Z" stroke="#A8A5A5" stroke-width="1.37125" stroke-miterlimit="10"/>
<path d="M645.63 14.6559L696.97 11.7656L645.63 1.98804L594.289 11.7656L645.63 14.6559Z" stroke="#A8A5A5" stroke-width="1.37125" stroke-miterlimit="10"/>
<path d="M841.309 1247.27L794 1264.33L837.029 1260.46L883.49 1237.34L841.309 1247.27Z" stroke="#A8A5A5" stroke-width="1.37125" stroke-miterlimit="10"/>
<path d="M449.949 1247.27L407.769 1237.34L454.229 1260.46L497.259 1264.33L449.949 1247.27Z" stroke="#A8A5A5" stroke-width="1.37125" stroke-miterlimit="10"/>
<path d="M449.949 43.2167L497.259 26.166L454.229 30.0342L407.769 53.1572L449.949 43.2167Z" stroke="#A8A5A5" stroke-width="1.37125" stroke-miterlimit="10"/>
<path d="M841.309 43.2167L883.49 53.1572L837.029 30.0342L794 26.166L841.309 43.2167Z" stroke="#A8A5A5" stroke-width="1.37125" stroke-miterlimit="10"/>
<path d="M28.4692 816.593L47.4926 873.714L60.6579 900.877L34.0013 815.092L28.4692 816.593Z" stroke="#A8A5A5" stroke-width="1.37125" stroke-miterlimit="10"/>
<path d="M12.1479 730.924L15.0383 759.484L28.4696 816.597L34.0016 815.096L12.1479 730.924Z" stroke="#A8A5A5" stroke-width="1.37125" stroke-miterlimit="10"/>
<path d="M1230.6 900.877L1243.77 873.714L1262.79 816.593L1257.27 815.092L1230.6 900.877Z" stroke="#A8A5A5" stroke-width="1.37125" stroke-miterlimit="10"/>
<path d="M1262.79 816.597L1276.21 759.484L1279.12 730.924L1257.26 815.096L1262.79 816.597Z" stroke="#A8A5A5" stroke-width="1.37125" stroke-miterlimit="10"/>
<path d="M28.4696 473.892L15.0383 531.014L12.1479 559.574L34.0016 475.393L28.4696 473.892Z" stroke="#A8A5A5" stroke-width="1.37125" stroke-miterlimit="10"/>
<path d="M60.6579 389.617L47.4926 416.78L28.4692 473.892L34.0013 475.393L60.6579 389.617Z" stroke="#A8A5A5" stroke-width="1.37125" stroke-miterlimit="10"/>
<path d="M1279.12 559.574L1276.21 531.014L1262.79 473.892L1257.26 475.393L1279.12 559.574Z" stroke="#A8A5A5" stroke-width="1.37125" stroke-miterlimit="10"/>
<path d="M1262.79 473.892L1243.77 416.78L1230.6 389.617L1257.27 475.393L1262.79 473.892Z" stroke="#A8A5A5" stroke-width="1.37125" stroke-miterlimit="10"/>
<path d="M78.3526 925.236L60.6587 900.878L97.779 982.049L106.159 977.048L78.3526 925.236Z" stroke="#A8A5A5" stroke-width="1.37125" stroke-miterlimit="10"/>
<path d="M1185.11 977.048L1193.49 982.049L1230.6 900.878L1212.9 925.236L1185.11 977.048Z" stroke="#A8A5A5" stroke-width="1.37125" stroke-miterlimit="10"/>
<path d="M106.159 313.445L97.779 308.444L60.6587 389.615L78.3526 365.248L106.159 313.445Z" stroke="#A8A5A5" stroke-width="1.37125" stroke-miterlimit="10"/>
<path d="M1212.9 365.248L1230.6 389.615L1193.49 308.444L1185.11 313.445L1212.9 365.248Z" stroke="#A8A5A5" stroke-width="1.37125" stroke-miterlimit="10"/>
<path d="M106.159 977.049L97.7793 982.049L148.451 1048.75L136.881 1023.83L106.159 977.049Z" stroke="#A8A5A5" stroke-width="1.37125" stroke-miterlimit="10"/>
<path d="M1154.39 1023.83L1142.82 1048.75L1193.49 982.049L1185.11 977.049L1154.39 1023.83Z" stroke="#A8A5A5" stroke-width="1.37125" stroke-miterlimit="10"/>
<path d="M136.881 266.666L148.451 241.742L97.7793 308.444L106.159 313.444L136.881 266.666Z" stroke="#A8A5A5" stroke-width="1.37125" stroke-miterlimit="10"/>
<path d="M1185.11 313.444L1193.49 308.444L1142.82 241.742L1154.39 266.666L1185.11 313.444Z" stroke="#A8A5A5" stroke-width="1.37125" stroke-miterlimit="10"/>
<path d="M11.1956 645.247H2.37012L12.1477 730.921L14.0946 702.36L11.1956 645.247Z" stroke="#A8A5A5" stroke-width="1.37125" stroke-miterlimit="10"/>
<path d="M1280.05 645.247L1277.16 702.36L1279.12 730.921L1288.88 645.247H1280.05Z" stroke="#A8A5A5" stroke-width="1.37125" stroke-miterlimit="10"/>
<path d="M14.0946 588.123L12.1477 559.571L2.37012 645.245H11.1956L14.0946 588.123Z" stroke="#A8A5A5" stroke-width="1.37125" stroke-miterlimit="10"/>
<path d="M1280.05 645.245H1288.88L1279.12 559.571L1277.16 588.123L1280.05 645.245Z" stroke="#A8A5A5" stroke-width="1.37125" stroke-miterlimit="10"/>
<path d="M1034.66 1156.78L1056.12 1141.48L1090.71 1109.26L1084.21 1107.7L1034.66 1156.78Z" stroke="#A8A5A5" stroke-width="1.37125" stroke-miterlimit="10"/>
<path d="M1090.7 1109.26L1126.72 1070.88L1142.82 1048.75L1084.21 1107.7L1090.7 1109.26Z" stroke="#A8A5A5" stroke-width="1.37125" stroke-miterlimit="10"/>
<path d="M1142.82 241.743L1126.72 219.615L1090.7 181.225L1084.21 182.795L1142.82 241.743Z" stroke="#A8A5A5" stroke-width="1.37125" stroke-miterlimit="10"/>
<path d="M1090.71 181.226L1056.12 149.012L1034.66 133.711L1084.21 182.796L1090.71 181.226Z" stroke="#A8A5A5" stroke-width="1.37125" stroke-miterlimit="10"/>
<path d="M200.545 1109.26L235.144 1141.48L256.586 1156.78L207.055 1107.7L200.545 1109.26Z" stroke="#A8A5A5" stroke-width="1.37125" stroke-miterlimit="10"/>
<path d="M148.45 1048.75L164.54 1070.88L200.546 1109.26L207.055 1107.7L148.45 1048.75Z" stroke="#A8A5A5" stroke-width="1.37125" stroke-miterlimit="10"/>
<path d="M200.546 181.225L164.54 219.615L148.45 241.743L207.055 182.795L200.546 181.225Z" stroke="#A8A5A5" stroke-width="1.37125" stroke-miterlimit="10"/>
<path d="M256.586 133.711L235.144 149.012L200.545 181.226L207.055 182.796L256.586 133.711Z" stroke="#A8A5A5" stroke-width="1.37125" stroke-miterlimit="10"/>
<path d="M696.97 1278.73L645.629 1288.51L743.473 1279.68L745.077 1276.78L696.97 1278.73Z" stroke="#A8A5A5" stroke-width="1.37125" stroke-miterlimit="10"/>
<path d="M546.175 1276.78L547.796 1279.68L645.631 1288.51L594.291 1278.73L546.175 1276.78Z" stroke="#A8A5A5" stroke-width="1.37125" stroke-miterlimit="10"/>
<path d="M594.291 11.7656L645.631 1.98804L547.796 10.8136L546.175 13.7125L594.291 11.7656Z" stroke="#A8A5A5" stroke-width="1.37125" stroke-miterlimit="10"/>
<path d="M745.077 13.7125L743.473 10.8136L645.629 1.98804L696.97 11.7656L745.077 13.7125Z" stroke="#A8A5A5" stroke-width="1.37125" stroke-miterlimit="10"/>
<path d="M745.079 1276.78L743.475 1279.68L837.031 1260.46L794.001 1264.33L745.079 1276.78Z" stroke="#A8A5A5" stroke-width="1.37125" stroke-miterlimit="10"/>
<path d="M497.258 1264.33L454.229 1260.46L547.793 1279.68L546.172 1276.78L497.258 1264.33Z" stroke="#A8A5A5" stroke-width="1.37125" stroke-miterlimit="10"/>
<path d="M546.172 13.7115L547.793 10.8125L454.229 30.0331L497.258 26.165L546.172 13.7115Z" stroke="#A8A5A5" stroke-width="1.37125" stroke-miterlimit="10"/>
<path d="M794.001 26.165L837.031 30.0331L743.475 10.8125L745.079 13.7115L794.001 26.165Z" stroke="#A8A5A5" stroke-width="1.37125" stroke-miterlimit="10"/>
<path d="M287.042 1173.55L256.586 1156.78L306.589 1193.83L329.48 1201.84L287.042 1173.55Z" stroke="#A8A5A5" stroke-width="1.37125" stroke-miterlimit="10"/>
<path d="M961.779 1201.84L984.671 1193.83L1034.66 1156.78L1004.22 1173.55L961.779 1201.84Z" stroke="#A8A5A5" stroke-width="1.37125" stroke-miterlimit="10"/>
<path d="M329.48 88.6572L306.589 96.668L256.586 133.711L287.042 116.935L329.48 88.6572Z" stroke="#A8A5A5" stroke-width="1.37125" stroke-miterlimit="10"/>
<path d="M1004.22 116.935L1034.66 133.711L984.671 96.668L961.779 88.6572L1004.22 116.935Z" stroke="#A8A5A5" stroke-width="1.37125" stroke-miterlimit="10"/>
<path d="M883.491 1237.34L837.03 1260.46L916.726 1229.68L920.242 1225.46L883.491 1237.34Z" stroke="#A8A5A5" stroke-width="1.37125" stroke-miterlimit="10"/>
<path d="M371.02 1225.46L374.536 1229.68L454.232 1260.46L407.771 1237.34L371.02 1225.46Z" stroke="#A8A5A5" stroke-width="1.37125" stroke-miterlimit="10"/>
<path d="M407.771 53.157L454.232 30.0339L374.536 60.816L371.02 65.0358L407.771 53.157Z" stroke="#A8A5A5" stroke-width="1.37125" stroke-miterlimit="10"/>
<path d="M920.242 65.0358L916.726 60.816L837.03 30.0339L883.491 53.157L920.242 65.0358Z" stroke="#A8A5A5" stroke-width="1.37125" stroke-miterlimit="10"/>
<path d="M920.24 1225.46L916.723 1229.68L984.669 1193.83L961.777 1201.84L920.24 1225.46Z" stroke="#A8A5A5" stroke-width="1.37125" stroke-miterlimit="10"/>
<path d="M329.481 1201.84L306.59 1193.83L374.535 1229.68L371.019 1225.46L329.481 1201.84Z" stroke="#A8A5A5" stroke-width="1.37125" stroke-miterlimit="10"/>
<path d="M371.019 65.0338L374.535 60.814L306.59 96.665L329.481 88.6542L371.019 65.0338Z" stroke="#A8A5A5" stroke-width="1.37125" stroke-miterlimit="10"/>
<path d="M961.777 88.6542L984.669 96.665L916.723 60.814L920.24 65.0338L961.777 88.6542Z" stroke="#A8A5A5" stroke-width="1.37125" stroke-miterlimit="10"/>
<path d="M645.629 1288.51C1000.89 1288.51 1288.89 1000.51 1288.89 645.247C1288.89 289.985 1000.89 1.98804 645.629 1.98804C290.367 1.98804 2.37012 289.985 2.37012 645.247C2.37012 1000.51 290.367 1288.51 645.629 1288.51Z" stroke="#4B0057" stroke-width="3" stroke-miterlimit="10"/>
</g>
</svg>
