<svg width="51" height="50" viewBox="0 0 51 50" fill="none" xmlns="http://www.w3.org/2000/svg">
<path d="M25.5625 4.50455C32.2542 4.50455 33.0471 4.52955 35.69 4.65C37.2789 4.66846 38.8528 4.95985 40.3425 5.51136C41.4316 5.9116 42.4166 6.55083 43.2247 7.38182C44.0578 8.18793 44.6986 9.17047 45.0999 10.2568C45.6528 11.7428 45.9449 13.3128 45.9634 14.8977C46.0841 17.5341 46.1092 18.325 46.1092 25C46.1092 31.675 46.0841 32.4659 45.9634 35.1023C45.9449 36.6872 45.6528 38.2572 45.0999 39.7432C44.6828 40.8215 44.044 41.8008 43.2247 42.6181C42.4053 43.4354 41.4236 44.0726 40.3425 44.4886C38.8528 45.0402 37.2789 45.3315 35.69 45.35C33.0471 45.4705 32.2542 45.4955 25.5625 45.4955C18.8708 45.4955 18.0779 45.4705 15.435 45.35C13.8461 45.3315 12.2722 45.0402 10.7825 44.4886C9.69339 44.0884 8.7084 43.4492 7.90027 42.6182C7.06721 41.8121 6.42638 40.8295 6.02514 39.7432C5.47225 38.2572 5.18013 36.6872 5.16162 35.1023C5.04087 32.4659 5.01581 31.675 5.01581 25C5.01581 18.325 5.04087 17.5341 5.16162 14.8977C5.18013 13.3128 5.47225 11.7428 6.02514 10.2568C6.42638 9.17047 7.06721 8.18793 7.90027 7.38182C8.7084 6.55083 9.69339 5.9116 10.7825 5.51136C12.2722 4.95985 13.8461 4.66846 15.435 4.65C18.0779 4.52955 18.8708 4.50455 25.5625 4.50455ZM25.5625 0C18.7569 0 17.9025 0.0295454 15.2299 0.15C13.1511 0.192855 11.0944 0.585494 9.14656 1.31136C7.48001 1.95494 5.96682 2.93906 4.70414 4.20054C3.44147 5.46202 2.45724 6.97297 1.81464 8.63636C1.08696 10.5793 0.693337 12.6309 0.650375 14.7045C0.529619 17.3591 0.5 18.2114 0.5 25C0.5 31.7886 0.529619 32.6409 0.650375 35.3068C0.693337 37.3805 1.08696 39.432 1.81464 41.375C2.45982 43.0374 3.44641 44.5468 4.71104 45.8063C5.97568 47.0659 7.49041 48.0476 9.15795 48.6886C11.1058 49.4145 13.1624 49.8071 15.2413 49.85C17.9025 49.9705 18.7569 50 25.5625 50C32.3681 50 33.2225 49.9705 35.8951 49.85C37.9739 49.8071 40.0306 49.4145 41.9784 48.6886C43.645 48.0451 45.1582 47.0609 46.4209 45.7995C47.6835 44.538 48.6678 43.027 49.3104 41.3636C50.038 39.4207 50.4317 37.3691 50.4746 35.2955C50.5954 32.6409 50.625 31.7886 50.625 25C50.625 18.2114 50.5954 17.3591 50.4746 14.6932C50.4317 12.6195 50.038 10.568 49.3104 8.625C48.6652 6.96261 47.6786 5.45318 46.414 4.19366C45.1493 2.93414 43.6346 1.95235 41.967 1.31136C40.0192 0.585494 37.9625 0.192855 35.8837 0.15C33.2225 0.0295454 32.3681 0 25.5625 0Z" fill="white"/>
<path d="M25.5639 12.1602C23.0183 12.1602 20.5298 12.9131 18.4133 14.3239C16.2967 15.7346 14.647 17.7397 13.6728 20.0857C12.6987 22.4316 12.4438 25.013 12.9404 27.5035C13.437 29.9939 14.6629 32.2816 16.4629 34.0771C18.2629 35.8726 20.5562 37.0954 23.0529 37.5907C25.5496 38.0861 28.1374 37.8319 30.4893 36.8601C32.8411 35.8884 34.8512 34.2429 36.2655 32.1316C37.6797 30.0203 38.4346 27.538 38.4346 24.9988C38.4346 21.5938 37.0786 18.3282 34.6648 15.9205C32.2511 13.5128 28.9774 12.1602 25.5639 12.1602ZM25.5639 33.3329C23.9114 33.3329 22.2961 32.8441 20.9221 31.9283C19.5481 31.0126 18.4773 29.711 17.8449 28.1881C17.2125 26.6653 17.0471 24.9895 17.3695 23.3729C17.6918 21.7562 18.4876 20.2712 19.656 19.1057C20.8245 17.9402 22.3132 17.1464 23.9339 16.8248C25.5546 16.5033 27.2345 16.6683 28.7611 17.2991C30.2878 17.9299 31.5927 18.9981 32.5107 20.3686C33.4288 21.7392 33.9188 23.3505 33.9188 24.9988C33.9188 27.2091 33.0385 29.3289 31.4717 30.8919C29.9048 32.4548 27.7797 33.3329 25.5639 33.3329Z" fill="white"/>
<path d="M38.9406 14.6533C40.6016 14.6533 41.9481 13.3102 41.9481 11.6533C41.9481 9.99647 40.6016 8.65332 38.9406 8.65332C37.2796 8.65332 35.9331 9.99647 35.9331 11.6533C35.9331 13.3102 37.2796 14.6533 38.9406 14.6533Z" fill="white"/>
</svg>
