<svg width="52" height="50" viewBox="0 0 52 50" fill="none" xmlns="http://www.w3.org/2000/svg">
<path d="M51.8966 1.0494C51.8549 0.825465 51.7639 0.618493 51.6327 0.449433C51.5015 0.280372 51.3349 0.155224 51.1495 0.0866569C50.4746 -0.0711458 49.7761 -0.0126868 49.1268 0.255959C49.1268 0.255959 4.11445 19.3567 1.54372 21.4717C0.991477 21.9265 0.805255 22.1918 0.713214 22.5027C0.267992 24.0188 1.65289 24.6707 1.65289 24.6707L13.2543 29.1332C13.4505 29.1747 13.6522 29.1609 13.843 29.0928C16.4801 27.1243 40.385 9.29715 41.7742 8.69828C41.9883 8.62247 42.1531 8.69828 42.1103 8.8878C41.558 11.1746 20.9002 32.8376 20.7867 32.969C20.7315 33.0225 20.6884 33.0914 20.6615 33.1695C20.6346 33.2476 20.6246 33.3325 20.6326 33.4163L19.5495 46.7885C19.5495 46.7885 19.0957 50.9503 22.6211 46.7885C25.1212 43.8346 27.5207 41.3886 28.7194 40.1984C32.7092 43.4505 37.0009 47.0463 38.8524 48.9288C39.1639 49.2847 39.5329 49.5628 39.9375 49.7464C40.342 49.9301 40.7738 50.0155 41.207 49.9977C41.7404 49.9209 42.2414 49.6542 42.6433 49.2331C43.0451 48.8119 43.3288 48.2563 43.4566 47.6401C43.4566 47.6401 51.6547 8.66796 51.9287 3.44741C51.9565 2.94204 51.9929 2.60849 51.9972 2.25725C52.0105 1.8511 51.9767 1.44471 51.8966 1.0494Z" fill="white"/>
</svg>
